<svg xmlns="http://www.w3.org/2000/svg" width="29.845" height="27.04" viewBox="0 0 29.845 27.04">
  <g id="Group_4638" data-name="Group 4638" transform="translate(-13503.667 602.268)">
    <g id="svgexport-17_64_" data-name="svgexport-17 (64)" transform="translate(13516.765 -602.268) rotate(90)">
      <path id="Path_43224" data-name="Path 43224" d="M26.73,5.8h0L21.21.308a1.056,1.056,0,0,0-1.49,1.5l3.706,3.688H1.056a1.056,1.056,0,0,0,0,2.113H23.425L19.72,11.293a1.056,1.056,0,0,0,1.49,1.5L26.729,7.3h0a1.057,1.057,0,0,0,0-1.5Z" transform="translate(0 0)"/>
    </g>
    <rect id="Rectangle_23816" data-name="Rectangle 23816" width="14" height="2" rx="1" transform="translate(13519.512 -602.268)"/>
    <rect id="Rectangle_23817" data-name="Rectangle 23817" width="11" height="2" rx="1" transform="translate(13519.512 -594.268)"/>
    <rect id="Rectangle_23818" data-name="Rectangle 23818" width="8" height="2" rx="1" transform="translate(13519.512 -586.268)"/>
    <rect id="Rectangle_23819" data-name="Rectangle 23819" width="5" height="2" rx="1" transform="translate(13519.512 -578.268)"/>
  </g>
</svg>
