<svg xmlns="http://www.w3.org/2000/svg" xmlns:xlink="http://www.w3.org/1999/xlink" width="366.256" height="330.605" viewBox="0 0 366.256 330.605">
  <defs>
    <clipPath id="clip-path">
      <rect id="Rectangle_23787" data-name="Rectangle 23787" width="366.256" height="330.605" fill="none"/>
    </clipPath>
    <clipPath id="clip-path-2">
      <rect id="Rectangle_23789" data-name="Rectangle 23789" width="96.744" height="96.381" fill="none"/>
    </clipPath>
    <clipPath id="clip-path-3">
      <rect id="Rectangle_23790" data-name="Rectangle 23790" width="91.627" height="68.298" fill="none"/>
    </clipPath>
    <clipPath id="clip-path-4">
      <rect id="Rectangle_23791" data-name="Rectangle 23791" width="83.414" height="55.992" fill="none"/>
    </clipPath>
    <clipPath id="clip-path-5">
      <rect id="Rectangle_23792" data-name="Rectangle 23792" width="102.734" height="102.349" fill="none"/>
    </clipPath>
  </defs>
  <g id="Group_4617" data-name="Group 4617" transform="translate(-47.647 -71.751)">
    <g id="Group_4618" data-name="Group 4618" transform="translate(47.647 71.751)">
      <g id="Group_4598" data-name="Group 4598" opacity="0.5">
        <g id="Group_4597" data-name="Group 4597">
          <g id="Group_4596" data-name="Group 4596" clip-path="url(#clip-path)">
            <path id="Path_43182" data-name="Path 43182" d="M201.67,568.361S167.15,517.246,159,440.922c-8.2-76.739,29.749-148.993,85.7-181.418,43.694-25.321,139.225-34.787,193.84,6.441,54.641,41.248,43.591,113.946,43.591,113.946s39.695,17.314,41.886,80.148c2.455,70.414-32.111,108.1-32.111,108.1Z" transform="translate(-157.886 -237.757)" fill="#ffe5e9"/>
          </g>
        </g>
      </g>
    </g>
    <g id="Group_4614" data-name="Group 4614" transform="translate(99.694 174.26)">
      <g id="Group_4616" data-name="Group 4616">
        <path id="Path_43186" data-name="Path 43186" d="M717.89,1031.707c1.655-.7,10.664,6.867,10.07,8.407s2.269,19,2.269,19l15.654-6.4,0,0c.219-.333,2.575-3.917,2.84-4.6.278-.72,2.8-1.385,3.741-.9s-1.273,1.19-1.462,1.384c-.513.527.7,1.136.7,1.136s-.143,1.631.282.47,1.629,1.18,1.341,1.831c-.558,1.263-4.818,2.762-5.462,2.789,0,0-15.938,13.208-22.358,15.125-1.11.331-2.915-7.407-5.113-12.712s-7.674-23.349-2.5-25.522" transform="translate(-651.446 -968.608)" fill="#f7a491"/>
        <path id="Path_43187" data-name="Path 43187" d="M485.544,1707.634s-2.351,2.293-2.4,3.135-.208,9.859.751,10.7,3.778,1.438,2.872,2.386c-.685.715-5.954.562-9.446.37-1.02-.056-2.3-8.189-2.7-9.385-.586-1.736-2.012-5.646-1.479-6.856a10.163,10.163,0,0,1,3.253-2.932,16,16,0,0,0,3.6-3.838Z" transform="translate(-459.348 -1498.529)" fill="#f48c7f"/>
        <path id="Path_43188" data-name="Path 43188" d="M638.909,1757.125s-2.1,5.943-2.106,5.958c-.156.941-.772,3.267-.772,4.123,0,3.215,14.5-2.729,11.25-4.154a3.434,3.434,0,0,1-1.314-2.253,7.527,7.527,0,0,1,1.221-3.8Z" transform="translate(-588.364 -1542.679)" fill="#f7a491"/>
        <path id="Path_43189" data-name="Path 43189" d="M667.682,1227.017s1.057,10.653,1.057,10.812c0,17.232,3.416,50.892,2.766,54.132-1.585,7.9-18.641,48.212-18.641,48.212l-9.219-1.1,12.013-48.263-4.421-19.426-6.256-38.4Z" transform="translate(-594.39 -1123.223)" fill="#a40000"/>
        <path id="Path_43190" data-name="Path 43190" d="M517.546,1242.208l-1.749,10.1-4.733,41.553-18.023,40.611s2.535,5.909,6.275,6.74l28.686-41.7,17.819-53.353-.626-11.853Z" transform="translate(-475.194 -1128.992)" fill="#b6132c"/>
        <path id="Path_43191" data-name="Path 43191" d="M726.343,999.413l-13.331,1.462s-.586-10.48-.586-15.479c0-6.065.517-13.876,1.249-13.708a11.315,11.315,0,0,1,6.472,3.871c4.55,6.109,6.2,23.853,6.2,23.853" transform="translate(-648.827 -921.139)" fill="#b6132c"/>
        <path id="Path_43192" data-name="Path 43192" d="M625.98,982.8c.267,1.849,5.182,52.119,5.182,52.119-23.275,11.241-36.119,2-36.119,2s.762-35.3-.151-40.1c-.6-3.179-1.357-24.3.7-24.894a51.582,51.582,0,0,1,8.978-1.908c2.82-.292,13.775-.462,15.735.2a24.959,24.959,0,0,1,5.672,12.59" transform="translate(-555.291 -919.609)" fill="#8a1e06"/>
        <path id="Path_43193" data-name="Path 43193" d="M472.065,1719.345s5.417,15.253,7.538,15.989c.563.2,3.265.692,3.774,1.887a5.171,5.171,0,0,1,0,1.562H472.086s-1.428-6.721-1.993-9.673c0,0-2.989-7.215-2.657-7.87s4.629-1.894,4.629-1.894" transform="translate(-454.908 -1512.879)" fill="#f47458"/>
        <path id="Path_43194" data-name="Path 43194" d="M632.075,1791.125l1.661-5.245s3.487,1.476,5.231,1.229a52.923,52.923,0,0,0,5.148-1.229c6.959,2.291,12.661,3.4,11.624,5.245Z" transform="translate(-585.233 -1565.538)" fill="#f47458"/>
        <path id="Path_43195" data-name="Path 43195" d="M779.253,1158.471a3.066,3.066,0,0,0,.351-.261c-.414-4.925-.339-9.7,1.206-11.311-.037-.077-.375-.8-.728-1.54-1.791,1.385-2.642,5.066-2.308,11.041a10.207,10.207,0,0,0,.236,1.237c.519.571.99.939,1.242.833" transform="translate(-700.491 -1058.594)" fill="#f7a491"/>
        <path id="Path_43196" data-name="Path 43196" d="M653,922.174l-1.5,9.889s5.479,11.774,8.75,10.753c2.745-.857,1.056-11.274,1.056-11.274s-1.5-5.595-1.047-8.394-7.258-.973-7.258-.973" transform="translate(-600.607 -881.489)" fill="#f7a491"/>
        <path id="Path_43197" data-name="Path 43197" d="M665.479,923.146c.449-2.8-7.258-.973-7.258-.973l-.124.82a4.557,4.557,0,0,0,.836,1.378,10.149,10.149,0,0,0,6.739,3.05,15.276,15.276,0,0,1-.192-4.276" transform="translate(-605.828 -881.489)" fill="#f47458"/>
        <path id="Path_43198" data-name="Path 43198" d="M650.367,845.593c-.218-.079-1.746,11.262,1.154,14.383s8.55,4.142,10.577,1.684c2.242-2.719,2.129-14.908-2.38-18.118s-9.351,2.051-9.351,2.051" transform="translate(-599.239 -818.898)" fill="#f7a491"/>
        <path id="Path_43199" data-name="Path 43199" d="M636.839,818.123a12.522,12.522,0,0,0-6.572,3.748c-1.582.187-3.733,1.061-5.954,4.739a9.2,9.2,0,0,0,2.465,11.989c3.179,2.458,3.135,5.3,3.135,5.3l.5-1.468a8.209,8.209,0,0,0,.4-3.459,6.762,6.762,0,0,0-.514-2.079c-.765-1.642,1.642-2.732,2.317-4.1.52-1.052.545-3.457,1.364-5.2l.978-1.327s2.256-1.755,4.463-1.26,1.89-7.8-2.582-6.886" transform="translate(-578.076 -799.546)" fill="#0e2e35"/>
        <path id="Path_43200" data-name="Path 43200" d="M657.3,888.985c.023,1.384-.606,2.516-1.4,2.53s-1.465-1.1-1.488-2.481.606-2.517,1.4-2.53,1.465,1.1,1.488,2.481" transform="translate(-602.906 -853.722)" fill="#f7a491"/>
        <path id="Path_43201" data-name="Path 43201" d="M690.863,912.872l4.371-.227a1.913,1.913,0,0,1-1.934,1.821c-2.34.189-2.437-1.594-2.437-1.594" transform="translate(-631.761 -874.412)" fill="#fff"/>
        <path id="Path_43202" data-name="Path 43202" d="M808.951,1079.859q-.98-1.975-1.739-3.97l-23.885,11.86c-1.468.729-1.8,3.056-.732,5.2s3.115,3.286,4.583,2.558l23.884-11.86q-1.127-1.809-2.112-3.784" transform="translate(-703.869 -1003.612)" fill="#0e2e35"/>
        <g id="Group_4603" data-name="Group 4603" transform="translate(100.538 6.29)" opacity="0.6">
          <g id="Group_4602" data-name="Group 4602">
            <g id="Group_4601" data-name="Group 4601" clip-path="url(#clip-path-2)">
              <path id="Path_43203" data-name="Path 43203" d="M959.332,850.759a48.122,48.122,0,1,1,21.963-64.635,48.271,48.271,0,0,1-21.963,64.635" transform="translate(-889.557 -759.47)" fill="#c5ddf9"/>
            </g>
          </g>
        </g>
        <g id="Group_4606" data-name="Group 4606" transform="translate(105.647 30.909)" style="mix-blend-mode: soft-light;isolation: isolate">
          <g id="Group_4605" data-name="Group 4605">
            <g id="Group_4604" data-name="Group 4604" clip-path="url(#clip-path-3)">
              <path id="Path_43204" data-name="Path 43204" d="M914.054,922.127A48.079,48.079,0,0,0,938.6,945.819l65.983-34.429c.021-.1.045-.2.065-.294a48.406,48.406,0,0,0-5.1-33.575Z" transform="translate(-914.054 -877.521)" fill="#fff"/>
            </g>
          </g>
        </g>
        <g id="Group_4609" data-name="Group 4609" transform="translate(100.989 8.628)" style="mix-blend-mode: soft-light;isolation: isolate">
          <g id="Group_4608" data-name="Group 4608">
            <g id="Group_4607" data-name="Group 4607" clip-path="url(#clip-path-4)">
              <path id="Path_43205" data-name="Path 43205" d="M954.9,770.679l-61.019,31.839c-.434,1.42-.811,2.87-1.121,4.352a48.507,48.507,0,0,0-.029,19.8l82.407-43A47.675,47.675,0,0,0,954.9,770.679" transform="translate(-891.719 -770.679)" fill="#fff"/>
            </g>
          </g>
        </g>
        <path id="Path_43206" data-name="Path 43206" d="M962.995,759.441a54.741,54.741,0,1,0-24.83,73.072,54.571,54.571,0,0,0,24.83-73.072M870.6,805.325a48.421,48.421,0,1,1,64.77,21.562,48.271,48.271,0,0,1-64.77-21.562" transform="translate(-765.058 -729.308)" fill="#184655"/>
        <g id="Group_4612" data-name="Group 4612" transform="translate(97.543 3.306)" opacity="0.5" style="mix-blend-mode: multiply;isolation: isolate">
          <g id="Group_4611" data-name="Group 4611">
            <g id="Group_4610" data-name="Group 4610" clip-path="url(#clip-path-5)">
              <path id="Path_43207" data-name="Path 43207" d="M972.614,773.467A51.419,51.419,0,1,0,949.291,842.1a51.259,51.259,0,0,0,23.323-68.637M883.2,817.873a48.421,48.421,0,1,1,64.77,21.562,48.271,48.271,0,0,1-64.77-21.562" transform="translate(-875.196 -745.162)" fill="#50bfa5"/>
            </g>
          </g>
        </g>
        <path id="Path_43208" data-name="Path 43208" d="M410.123,1162.882l-1.875-3.838a7.73,7.73,0,0,1,3.552-10.339l68.837-33.873a7.73,7.73,0,0,1,10.338,3.552l1.875,3.838a7.73,7.73,0,0,1-3.552,10.339l-68.837,33.873a7.729,7.729,0,0,1-10.338-3.552" transform="translate(-407.461 -1033.811)" fill="#184655"/>
        <path id="Path_43209" data-name="Path 43209" d="M483.814,1080.048a1.4,1.4,0,0,1-.006-.324c.343-3.481,3.233-32.714,3.72-33.957.439-1.122,13.4-19.663,13.4-19.663l6.372,8.681-12.467,16.63c-.28,1.057-4.778,20.791-4.778,20.791s-.922,3.6-1.335,5.752c.188.519.373,1.009.537,1.412a12.975,12.975,0,0,0,1.343,2.159,14.793,14.793,0,0,1,1.592,2.815c.132.508.37,1.563.5,2.2s.319,1.378.35,1.724a3.326,3.326,0,0,0,.4.926.556.556,0,0,1-.656.8c-.453-.151-.806-.737-1.023-1.1-.613-1.031-.94-2.914-1.093-2.814s-.69,3.294-.775,3.655a39.371,39.371,0,0,1-1.094,4.749c-.364.678-.845.565-.973.14-.11-.366.4-5.556.4-5.556s.064-.662-.226-.455-.764,4.918-.966,5.608-.661,1.055-1.051.5c-.474-.674.341-5.672.341-5.672s.091-.628-.177-.57-.6,4.074-.813,4.422a.529.529,0,0,1-.987-.107c-.3-.682.471-5.137.471-5.137s-.038-.355-.205-.237-.7,3.52-1.045,3.836a.367.367,0,0,1-.533.007c-.635-.433.339-3.67.329-5.279s.737-3.418.514-5.334c-.014-.12-.053-.415-.078-.6" transform="translate(-467.115 -964.209)" fill="#f8a492"/>
        <path id="Path_43210" data-name="Path 43210" d="M521.052,1001.571l11.074,7.435s6.242-9.288,9.592-12.594c4.2-4.142-1.529-16.831-4.233-16.113-6.049,1.606-16.433,21.272-16.433,21.272" transform="translate(-497.363 -927.933)" fill="#b6132c"/>
        <path id="Path_43211" data-name="Path 43211" d="M874.81,1114.436c0-2.252.8-.531,1.094-.068-.421-2.394.711-.705,1.052-.142a2.589,2.589,0,0,1,.421,2.273c-1.979,1.263-4.772,2.748-4.883,2.231s.253-4.1.673-4.378.537,1.626.537,1.626c.013-.994.221-3.815,1.1-1.542" transform="translate(-775.498 -1033.078)" fill="#f7a491"/>
      </g>
    </g>
  </g>
</svg>
