<svg id="Group_4566" data-name="Group 4566" xmlns="http://www.w3.org/2000/svg" xmlns:xlink="http://www.w3.org/1999/xlink" width="341.363" height="331.12" viewBox="0 0 341.363 331.12">
  <defs>
    <clipPath id="clip-path">
      <rect id="Rectangle_23743" data-name="Rectangle 23743" width="341.363" height="331.12" fill="none"/>
    </clipPath>
    <clipPath id="clip-path-5">
      <rect id="Rectangle_23712" data-name="Rectangle 23712" width="29.06" height="47.985" fill="none"/>
    </clipPath>
    <clipPath id="clip-path-6">
      <rect id="Rectangle_23713" data-name="Rectangle 23713" width="27.383" height="58.285" fill="none"/>
    </clipPath>
    <clipPath id="clip-path-8">
      <rect id="Rectangle_23715" data-name="Rectangle 23715" width="224.059" height="129.804" fill="none"/>
    </clipPath>
    <clipPath id="clip-path-9">
      <rect id="Rectangle_23716" data-name="Rectangle 23716" width="127.34" height="73.623" fill="none"/>
    </clipPath>
    <clipPath id="clip-path-10">
      <rect id="Rectangle_23717" data-name="Rectangle 23717" width="44.076" height="43.737" fill="none"/>
    </clipPath>
    <clipPath id="clip-path-12">
      <rect id="Rectangle_23719" data-name="Rectangle 23719" width="27.547" height="34.592" fill="none"/>
    </clipPath>
    <clipPath id="clip-path-14">
      <rect id="Rectangle_23721" data-name="Rectangle 23721" width="70.246" height="40.556" fill="none"/>
    </clipPath>
    <clipPath id="clip-path-15">
      <rect id="Rectangle_23722" data-name="Rectangle 23722" width="69.753" height="40.547" fill="none"/>
    </clipPath>
    <clipPath id="clip-path-16">
      <rect id="Rectangle_23723" data-name="Rectangle 23723" width="43.277" height="24.981" fill="none"/>
    </clipPath>
    <clipPath id="clip-path-18">
      <rect id="Rectangle_23725" data-name="Rectangle 23725" width="63.67" height="96.912" fill="none"/>
    </clipPath>
    <clipPath id="clip-path-20">
      <rect id="Rectangle_23727" data-name="Rectangle 23727" width="63.671" height="96.912" fill="none"/>
    </clipPath>
    <clipPath id="clip-path-21">
      <rect id="Rectangle_23728" data-name="Rectangle 23728" width="47.499" height="60.05" fill="none"/>
    </clipPath>
    <clipPath id="clip-path-23">
      <rect id="Rectangle_23730" data-name="Rectangle 23730" width="127.34" height="36.863" fill="none"/>
    </clipPath>
    <clipPath id="clip-path-25">
      <rect id="Rectangle_23732" data-name="Rectangle 23732" width="24.876" height="31.24" fill="none"/>
    </clipPath>
    <clipPath id="clip-path-26">
      <rect id="Rectangle_23733" data-name="Rectangle 23733" width="98.935" height="92.017" fill="none"/>
    </clipPath>
    <clipPath id="clip-path-28">
      <rect id="Rectangle_23735" data-name="Rectangle 23735" width="14.66" height="5.86" fill="none"/>
    </clipPath>
    <clipPath id="clip-path-29">
      <rect id="Rectangle_23736" data-name="Rectangle 23736" width="3.023" height="1.91" fill="none"/>
    </clipPath>
    <clipPath id="clip-path-30">
      <rect id="Rectangle_23737" data-name="Rectangle 23737" width="3.537" height="5.592" fill="none"/>
    </clipPath>
    <clipPath id="clip-path-31">
      <rect id="Rectangle_23738" data-name="Rectangle 23738" width="8.525" height="4.389" fill="none"/>
    </clipPath>
    <clipPath id="clip-path-32">
      <rect id="Rectangle_23739" data-name="Rectangle 23739" width="15.245" height="18.754" fill="none"/>
    </clipPath>
    <clipPath id="clip-path-33">
      <rect id="Rectangle_23740" data-name="Rectangle 23740" width="3.996" height="9.507" fill="none"/>
    </clipPath>
    <clipPath id="clip-path-34">
      <rect id="Rectangle_23741" data-name="Rectangle 23741" width="3.623" height="9.428" fill="none"/>
    </clipPath>
  </defs>
  <g id="Group_4555" data-name="Group 4555" clip-path="url(#clip-path)">
    <g id="Group_4465" data-name="Group 4465">
      <g id="Group_4464" data-name="Group 4464" clip-path="url(#clip-path)">
        <path id="Path_42949" data-name="Path 42949" d="M291.373,212.553c66.655,38.5,66.655,100.921,0,139.421s-174.725,38.5-241.38,0-66.655-100.921,0-139.421,174.725-38.5,241.38,0" transform="translate(0 -49.729)" fill="#f5f5f5"/>
      </g>
    </g>
    <g id="Group_4467" data-name="Group 4467">
      <g id="Group_4466" data-name="Group 4466" clip-path="url(#clip-path)">
        <path id="Path_42950" data-name="Path 42950" d="M374.826,263.981c11.68,6.743,11.68,17.677,0,24.419s-30.617,6.743-42.3,0-11.68-17.676,0-24.419,30.616-6.743,42.3,0" transform="translate(-87.657 -70.101)" fill="#e0e0e0"/>
        <path id="Path_42951" data-name="Path 42951" d="M219.492,383.474l83.068-47.959c1.82-1.051,1.82-2.755,0-3.805L127.436,230.641a7.28,7.28,0,0,0-6.591,0L37.776,278.6c-1.82,1.051-1.82,2.755,0,3.806L212.9,383.474a7.286,7.286,0,0,0,6.592,0" transform="translate(-9.858 -62.23)" fill="#e0e0e0"/>
      </g>
    </g>
    <g id="Group_4475" data-name="Group 4475">
      <g id="Group_4474" data-name="Group 4474" clip-path="url(#clip-path)">
        <path id="Path_42952" data-name="Path 42952" d="M378.943,326.256l-4.664-4.02s.184-14.361,4.388-25.918c5.911-16.249,18.45-19.81,22.272-17.336s3.829,7.63-5.544,15.858c-5.53,4.855-13.564,15.83-16.451,31.416" transform="translate(-101.332 -75.339)" fill="#b6132c"/>
        <g id="Group_4470" data-name="Group 4470" transform="translate(272.947 202.932)" opacity="0.15">
          <g id="Group_4469" data-name="Group 4469">
            <g id="Group_4468" data-name="Group 4468" clip-path="url(#clip-path-5)">
              <path id="Path_42953" data-name="Path 42953" d="M378.943,326.256l-4.664-4.02s.184-14.361,4.388-25.918c5.911-16.249,18.45-19.81,22.272-17.336s3.829,7.63-5.544,15.858c-5.53,4.855-13.564,15.83-16.451,31.416" transform="translate(-374.279 -278.271)"/>
            </g>
          </g>
        </g>
        <path id="Path_42954" data-name="Path 42954" d="M379.73,320.071a.434.434,0,0,0,.052.007.382.382,0,0,0,.4-.36c.887-16.117,10.546-32.084,18.987-37.634a.381.381,0,0,0-.419-.637c-8.6,5.651-18.429,21.873-19.329,38.228a.382.382,0,0,0,.307.4" transform="translate(-102.724 -76.182)" fill="#fff"/>
        <path id="Path_42955" data-name="Path 42955" d="M393.905,343.454c.737.637,2.648-.071,3.388-.382a8.066,8.066,0,0,0,3.22-2.509,7.554,7.554,0,0,0,1.526-4.326,17.925,17.925,0,0,0-.1-2.478q-.106-1.214-.213-2.428a5.938,5.938,0,0,1,.115-2.384c.507-1.534,2.117-2.363,3.571-3.066,1.607-.777,3.339-1.88,3.7-3.775a6.788,6.788,0,0,0-.9-4.287c-.682-1.323-1.558-2.544-2.141-3.914a4.737,4.737,0,0,1-.38-3.126,4.948,4.948,0,0,1,1-1.713,26.525,26.525,0,0,0,2.729-3.293,3.778,3.778,0,0,0,.125-4.042,4.417,4.417,0,0,0-3.1-1.445,7.61,7.61,0,0,0-3.236.476c-3.331,1.086-5.739,4.311-9.178,4.976a32.568,32.568,0,0,1-4.043.193,4.848,4.848,0,0,0-3.607,1.56c-1.626,2.11-.015,5.414-1.321,7.735-1.156,2.054-3.454,2.479-5.038,4.225a4.788,4.788,0,0,0-1.12,2.766,14.063,14.063,0,0,0,.266,5.095,35.256,35.256,0,0,0,1.814,4.9c.04.059,12.81,11.149,12.923,11.247" transform="translate(-102.552 -81.289)" fill="#b6132c"/>
        <path id="Path_42956" data-name="Path 42956" d="M388.934,338.072l.01,0a.384.384,0,0,0,.44-.319c2.274-14.976,12.467-30.013,18.484-33.787a.381.381,0,1,0-.4-.646c-6.139,3.85-16.527,19.132-18.833,34.318a.381.381,0,0,0,.3.432" transform="translate(-105.216 -82.105)" fill="#fff"/>
        <path id="Path_42957" data-name="Path 42957" d="M396.671,327.176a.347.347,0,0,0,.114,0,51.142,51.142,0,0,1,11.118.362.384.384,0,0,0,.435-.32.37.37,0,0,0-.32-.435,52.13,52.13,0,0,0-11.315-.365.381.381,0,0,0-.032.753" transform="translate(-107.311 -88.327)" fill="#fff"/>
        <path id="Path_42958" data-name="Path 42958" d="M41.211,267.961l6.511-3.759s1.6-13.944.534-24.744c-1.491-15.175-11.291-33.434-22.983-29.146s5.361,19.742,9.157,32.613,6.781,25.036,6.781,25.036" transform="translate(-5.75 -56.768)" fill="#b6132c"/>
        <g id="Group_4473" data-name="Group 4473" transform="translate(15.488 152.908)" opacity="0.15">
          <g id="Group_4472" data-name="Group 4472">
            <g id="Group_4471" data-name="Group 4471" clip-path="url(#clip-path-6)">
              <path id="Path_42959" data-name="Path 42959" d="M41.211,267.961l6.511-3.759s1.6-13.944.534-24.744c-1.491-15.175-11.291-33.434-22.983-29.146s5.361,19.742,9.157,32.613,6.781,25.036,6.781,25.036" transform="translate(-21.238 -209.676)"/>
            </g>
          </g>
        </g>
        <path id="Path_42960" data-name="Path 42960" d="M47.262,268.15h-.014a.394.394,0,0,1-.381-.408c1.144-33.719-15.641-50.68-15.81-50.847a.394.394,0,1,1,.553-.562c.173.17,17.2,17.375,16.046,51.436a.394.394,0,0,1-.394.381" transform="translate(-8.377 -58.539)" fill="#fff"/>
        <path id="Path_42961" data-name="Path 42961" d="M35.418,278.121l4.633-2.675a51.114,51.114,0,0,0-3.9-21.193c-4.085-10.12-14.218-18.515-19.314-16.751s-4.971,5.378-2.485,9.17,17.6,12.828,21.07,31.449" transform="translate(-3.432 -64.237)" fill="#b6132c"/>
        <path id="Path_42962" data-name="Path 42962" d="M39.531,278.164h0a.4.4,0,0,1-.392-.4c.092-21.319-19.926-35.729-20.128-35.872a.394.394,0,1,1,.456-.643c.2.145,20.555,14.793,20.461,36.518a.394.394,0,0,1-.394.392" transform="translate(-5.101 -65.297)" fill="#fff"/>
      </g>
    </g>
    <g id="Group_4504" data-name="Group 4504">
      <g id="Group_4503" data-name="Group 4503" clip-path="url(#clip-path)">
        <path id="Path_42963" data-name="Path 42963" d="M303.892,310.8a1.037,1.037,0,0,0-.122-.2,1.5,1.5,0,0,0-.106-.13.992.992,0,0,0-.122-.147,1.846,1.846,0,0,0-.138-.13,3.212,3.212,0,0,0-.5-.358L133.085,211.783a6.238,6.238,0,0,0-5.629,0L44.2,259.849c-.122.074-.236.139-.333.211a1.3,1.3,0,0,0-.114.09,2.167,2.167,0,0,0-.472.529.788.788,0,0,0-.082.139.845.845,0,0,0-.09.22,1.312,1.312,0,0,0-.04.171,1.119,1.119,0,0,0-.033.285,1.592,1.592,0,0,0,.016.195c.017.074.033.147.057.22a1.737,1.737,0,0,0,.09.211,2.461,2.461,0,0,0,1,.977l169.815,98.044a5.148,5.148,0,0,0,1.675.57,7.524,7.524,0,0,0,1.139.1,7.4,7.4,0,0,0,1.13-.09,2.356,2.356,0,0,0,.366-.073,5.165,5.165,0,0,0,1.017-.341,3.4,3.4,0,0,0,.3-.163L302.9,313.073c1.065-.618,1.4-1.5.992-2.277m-18.286-3.482-5.328,3.075-70.932,40.925a5.246,5.246,0,0,1-.57.284,4.806,4.806,0,0,1-3.652,0,5.3,5.3,0,0,1-.578-.284L69.864,273.556,63.348,269.8a2.549,2.549,0,0,1-.61-.48c-.675-.74-.464-1.684.61-2.31L139.577,223a4.857,4.857,0,0,1,2.961-.822,3,3,0,0,1,.724.2,2.571,2.571,0,0,1,.374.179l141.97,81.97a1.611,1.611,0,0,1,0,2.79" transform="translate(-11.652 -57.156)" fill="#455a64"/>
        <path id="Path_42964" data-name="Path 42964" d="M43.254,278.237a6.3,6.3,0,0,0-2.49,4.663v3.719a6.206,6.206,0,0,0,2.813,4.884l169.8,98.036a5.323,5.323,0,0,0,2.067.63,6.907,6.907,0,0,0,.753.048.007.007,0,0,1,.009,0v-10.23l0-.006a7.689,7.689,0,0,1-1.137-.093,5.138,5.138,0,0,1-1.68-.575L43.582,281.267c-1.431-.826-1.546-2.132-.327-3.03" transform="translate(-11.036 -75.33)" fill="#37474f"/>
        <path id="Path_42965" data-name="Path 42965" d="M334.677,374.739a11.3,11.3,0,0,0-10.046,0,4.039,4.039,0,0,0-1.5,1.375c-.9,1.562.748,2.741,1.5,3.18a11.3,11.3,0,0,0,10.046,0,4.156,4.156,0,0,0,1.5-1.375c.9-1.561-.756-2.741-1.5-3.18" transform="translate(-87.412 -101.138)" fill="#a40000"/>
        <path id="Path_42966" data-name="Path 42966" d="M109.823,250.318a.839.839,0,0,0,0-1.589,3.045,3.045,0,0,0-2.752,0,.839.839,0,0,0,0,1.589,3.04,3.04,0,0,0,2.752,0" transform="translate(-28.834 -67.252)" fill="#263238"/>
        <path id="Path_42967" data-name="Path 42967" d="M104.031,260.72a.744.744,0,0,0,0-1.41,2.7,2.7,0,0,0-2.442,0,.744.744,0,0,0,0,1.41,2.7,2.7,0,0,0,2.442,0" transform="translate(-27.367 -70.126)" fill="#263238"/>
        <path id="Path_42968" data-name="Path 42968" d="M109.631,254.556l13.669-7.892c.749-.432.787-1.111.084-1.518a2.908,2.908,0,0,0-2.628.049l-13.669,7.892c-.749.432-.787,1.112-.084,1.518a2.909,2.909,0,0,0,2.628-.049" transform="translate(-28.834 -66.292)" fill="#263238"/>
        <path id="Path_42969" data-name="Path 42969" d="M367.789,346.815c1.167.907,1.04,2.186-.37,3l-83.258,48.071a5.741,5.741,0,0,1-2.816.668v10.23a5.715,5.715,0,0,0,2.808-.681l83.258-48.055a6.219,6.219,0,0,0,2.816-4.877l.012-3.728a6.316,6.316,0,0,0-2.449-4.625" transform="translate(-76.171 -93.896)" fill="#263238"/>
        <path id="Path_42970" data-name="Path 42970" d="M91.143,313.635a3.12,3.12,0,0,1,1.455,2.417.906.906,0,0,1-.4.849c-.176.1-.837.492-1.019.594a1.071,1.071,0,0,1-1.05-.12L71.2,306.444a3.12,3.12,0,0,1-1.455-2.416.925.925,0,0,1,.368-.829c.18-.114.869-.511,1.051-.613a1.067,1.067,0,0,1,1.052.119Z" transform="translate(-18.882 -81.897)" fill="#263238"/>
        <path id="Path_42971" data-name="Path 42971" d="M90.127,314.44,71.2,303.51c-.8-.465-1.455-.135-1.456.736a3.121,3.121,0,0,0,1.456,2.417l18.932,10.93c.8.464,1.455.134,1.455-.736a3.12,3.12,0,0,0-1.455-2.417" transform="translate(-18.881 -82.115)" fill="#455a64"/>
        <path id="Path_42972" data-name="Path 42972" d="M60.108,295.718a3.12,3.12,0,0,1,1.455,2.417.9.9,0,0,1-.4.848c-.176.1-.837.493-1.02.594a1.071,1.071,0,0,1-1.05-.12L50.169,294.3a3.122,3.122,0,0,1-1.456-2.417.924.924,0,0,1,.368-.829c.18-.114.869-.511,1.05-.613a1.068,1.068,0,0,1,1.052.119Z" transform="translate(-13.189 -78.611)" fill="#263238"/>
        <path id="Path_42973" data-name="Path 42973" d="M59.093,296.522l-8.925-5.153c-.8-.464-1.456-.134-1.456.736a3.121,3.121,0,0,0,1.456,2.417l8.925,5.153c.8.464,1.455.134,1.455-.736a3.12,3.12,0,0,0-1.455-2.417" transform="translate(-13.189 -78.828)" fill="#455a64"/>
        <path id="Path_42974" data-name="Path 42974" d="M292.776,311.357l-5.328,3.075-70.932,40.925a5.249,5.249,0,0,1-.57.284,4.806,4.806,0,0,1-3.652,0,5.3,5.3,0,0,1-.578-.284L77.035,277.6l-6.516-3.758a2.549,2.549,0,0,1-.61-.48c-.675-.74-.464-1.684.61-2.31l76.228-44.007a4.857,4.857,0,0,1,2.961-.822,3,3,0,0,1,.724.2,2.57,2.57,0,0,1,.374.179l141.97,81.97a1.611,1.611,0,0,1,0,2.79" transform="translate(-18.822 -61.24)" fill="#b6132c"/>
        <g id="Group_4478" data-name="Group 4478" transform="translate(50.7 164.957)" opacity="0.8">
          <g id="Group_4477" data-name="Group 4477">
            <g id="Group_4476" data-name="Group 4476" clip-path="url(#clip-path-8)">
              <path id="Path_42975" data-name="Path 42975" d="M292.776,311.357l-5.328,3.075-70.932,40.925a5.249,5.249,0,0,1-.57.284,4.806,4.806,0,0,1-3.652,0,5.3,5.3,0,0,1-.578-.284L77.035,277.6l-6.516-3.758a2.549,2.549,0,0,1-.61-.48c-.675-.74-.464-1.684.61-2.31l76.228-44.007a4.857,4.857,0,0,1,2.961-.822,3,3,0,0,1,.724.2,2.57,2.57,0,0,1,.374.179l141.97,81.97a1.611,1.611,0,0,1,0,2.79" transform="translate(-69.522 -226.198)" fill="#fff"/>
            </g>
          </g>
        </g>
        <path id="Path_42976" data-name="Path 42976" d="M92.166,283.1a.235.235,0,0,1-.11-.035l-.374-.216-.9.52a.145.145,0,0,1-.154,0l-.134-.077a.277.277,0,0,1-.063-.046.211.211,0,0,1-.028-.053l-.382-1.327a.09.09,0,0,1,0-.055c0-.013.02-.028.049-.044l.125-.072a.2.2,0,0,1,.112-.031.265.265,0,0,1,.117.039l1.308.755.2-.115a.19.19,0,0,1,.106-.03.262.262,0,0,1,.114.039l.089.051c.039.023.06.044.062.063s-.015.039-.053.061l-.2.114.374.216q.059.035.061.063c0,.02-.018.041-.058.064l-.152.087a.2.2,0,0,1-.106.031m-.743-.47-.932-.538.278.916Z" transform="translate(-24.37 -76.256)" fill="#455a64"/>
        <path id="Path_42977" data-name="Path 42977" d="M93.481,281.909a2.429,2.429,0,0,1-1.128-.346q-.559-.323-.6-.651c-.026-.22.123-.422.443-.607a2.124,2.124,0,0,1,.407-.182,1.68,1.68,0,0,1,.41-.085.119.119,0,0,1,.069.01.08.08,0,0,1,.028.028l.082.143c.008.018.007.03,0,.037a.278.278,0,0,1-.054.012,1.535,1.535,0,0,0-.586.194c-.216.125-.316.263-.3.416s.171.312.458.478a1.811,1.811,0,0,0,.823.268,1.261,1.261,0,0,0,.7-.162,1.314,1.314,0,0,0,.2-.141.449.449,0,0,0,.116-.137l-.607-.351-.376.217a.186.186,0,0,1-.108.03.255.255,0,0,1-.113-.039l-.085-.05c-.042-.023-.063-.044-.063-.063s.016-.039.054-.061l.6-.346a.218.218,0,0,1,.125-.032.317.317,0,0,1,.133.046l.867.5a.258.258,0,0,1,.065.047.046.046,0,0,1,.008.047,1.013,1.013,0,0,1-.521.521,1.914,1.914,0,0,1-1.05.257" transform="translate(-24.841 -75.817)" fill="#455a64"/>
        <path id="Path_42978" data-name="Path 42978" d="M103.881,276.434a.319.319,0,0,1,0,.6,1.156,1.156,0,0,1-1.046,0,.319.319,0,0,1,0-.6,1.156,1.156,0,0,1,1.046,0" transform="translate(-27.783 -74.808)" fill="#455a64"/>
        <path id="Path_42979" data-name="Path 42979" d="M101.529,275.681c-.527.3-.689.739-.487,1.124a.336.336,0,0,0,.314.117h0c.176-.012.294-.114.241-.212-.146-.271-.031-.579.34-.793a2.129,2.129,0,0,1,1.372-.2c.171.031.346-.037.368-.14h0c.016-.081-.069-.158-.2-.181a3.032,3.032,0,0,0-1.947.281" transform="translate(-27.333 -74.548)" fill="#455a64"/>
        <path id="Path_42980" data-name="Path 42980" d="M100.253,274.944c-.783.452-1.063,1.087-.842,1.671a.315.315,0,0,0,.32.135h0c.172-.012.284-.106.246-.2-.185-.476.043-.995.683-1.364a3.924,3.924,0,0,1,2.366-.4c.168.022.333-.043.353-.142s-.084-.166-.233-.185a4.807,4.807,0,0,0-2.9.485" transform="translate(-26.895 -74.295)" fill="#455a64"/>
        <path id="Path_42981" data-name="Path 42981" d="M121.7,264.486a.165.165,0,0,1-.088-.029.054.054,0,0,1-.026-.057l.158-.775c.005-.018.011-.037.018-.055a.1.1,0,0,1,.044-.048l.271-.156a.187.187,0,0,1,.094-.022.183.183,0,0,1,.093.022l2.236,1.291a.064.064,0,0,1,.038.054.063.063,0,0,1-.038.054l-.281.162a.182.182,0,0,1-.093.022.191.191,0,0,1-.094-.022l-1.709-.987-.106.506a.076.076,0,0,1-.049.05.231.231,0,0,1-.1.016Z" transform="translate(-32.918 -71.297)" fill="#455a64"/>
        <path id="Path_42982" data-name="Path 42982" d="M124.1,263.1a.161.161,0,0,1-.088-.029.055.055,0,0,1-.026-.057l.16-.775c0-.018.011-.037.018-.056a.1.1,0,0,1,.045-.047l.269-.156a.187.187,0,0,1,.094-.022.184.184,0,0,1,.093.022l2.235,1.291a.064.064,0,0,1,.039.054.065.065,0,0,1-.039.054l-.28.162a.21.21,0,0,1-.187,0l-1.709-.987-.107.505a.076.076,0,0,1-.049.05.225.225,0,0,1-.1.016Z" transform="translate(-33.567 -70.922)" fill="#455a64"/>
        <path id="Path_42983" data-name="Path 42983" d="M127.026,261.62a.212.212,0,0,1,.187,0l.339.2a.057.057,0,0,1,0,.108l-.322.186a.182.182,0,0,1-.093.022.179.179,0,0,1-.093-.022l-.339-.2a.057.057,0,0,1,0-.108Zm1.211.7a.194.194,0,0,1,.093-.023.19.19,0,0,1,.093.023l.34.2a.064.064,0,0,1,.038.054.063.063,0,0,1-.039.054l-.322.186a.185.185,0,0,1-.094.022.183.183,0,0,1-.093-.022l-.339-.2a.057.057,0,0,1,0-.108Z" transform="translate(-34.293 -70.825)" fill="#455a64"/>
        <path id="Path_42984" data-name="Path 42984" d="M131.162,260.953a.185.185,0,0,1-.094.022.183.183,0,0,1-.093-.022l-.419-.242-1.073.62a.184.184,0,0,1-.093.022.182.182,0,0,1-.093-.022l-.246-.142a.137.137,0,0,1-.063-.061.78.78,0,0,1-.024-.076l-.263-1.375a.112.112,0,0,1,.055-.131l.263-.152a.18.18,0,0,1,.094-.023.176.176,0,0,1,.093.023l1.384.8.3-.172a.186.186,0,0,1,.093-.023.183.183,0,0,1,.093.023l.246.142a.057.057,0,0,1,0,.108l-.3.172.419.242a.063.063,0,0,1,.038.053.062.062,0,0,1-.038.054Zm-1.038-.492-.741-.427.149.769Z" transform="translate(-34.844 -70.222)" fill="#455a64"/>
        <path id="Path_42985" data-name="Path 42985" d="M130.776,258.268a.058.058,0,0,1,0-.108l1.3-.751a.187.187,0,0,1,.094-.022.183.183,0,0,1,.094.022l.246.141a.058.058,0,0,1,0,.109l-.972.561.4.278a.543.543,0,0,1,.14-.133c.057-.038.1-.069.144-.091a1.946,1.946,0,0,1,.411-.177,1.813,1.813,0,0,1,.442-.077,1.715,1.715,0,0,1,.44.035,1.4,1.4,0,0,1,.412.158.909.909,0,0,1,.308.26.365.365,0,0,1,.065.263.466.466,0,0,1-.14.252,1.389,1.389,0,0,1-.306.23,2.14,2.14,0,0,1-.465.2,1.827,1.827,0,0,1-.435.077,1.472,1.472,0,0,1-.387-.028,1.218,1.218,0,0,1-.322-.112c-.031-.014-.044-.032-.042-.053a.071.071,0,0,1,.042-.054l.281-.162a.193.193,0,0,1,.084-.023.286.286,0,0,1,.1.013.659.659,0,0,0,.2.037.843.843,0,0,0,.183-.014.82.82,0,0,0,.171-.053,1.534,1.534,0,0,0,.163-.082c.132-.077.2-.158.211-.246s-.048-.168-.173-.239a.677.677,0,0,0-.381-.08.948.948,0,0,0-.425.121.788.788,0,0,0-.149.1.327.327,0,0,0-.063.078.591.591,0,0,1-.033.061.173.173,0,0,1-.064.055l-.319.184a.181.181,0,0,1-.093.022.184.184,0,0,1-.093-.022Z" transform="translate(-35.396 -69.685)" fill="#455a64"/>
        <path id="Path_42986" data-name="Path 42986" d="M79.426,291.373l-.721-.416.962-.555.721.416Z" transform="translate(-21.308 -78.623)" fill="#455a64"/>
        <path id="Path_42987" data-name="Path 42987" d="M81.137,290.076l-1.442-.833.962-.556,1.442.834Z" transform="translate(-21.576 -78.159)" fill="#455a64"/>
        <path id="Path_42988" data-name="Path 42988" d="M82.848,288.779l-2.164-1.249.962-.556,2.164,1.25Z" transform="translate(-21.844 -77.695)" fill="#455a64"/>
        <path id="Path_42989" data-name="Path 42989" d="M84.558,287.482l-2.885-1.666.962-.556,2.885,1.666Z" transform="translate(-22.112 -77.231)" fill="#455a64"/>
        <path id="Path_42990" data-name="Path 42990" d="M173.447,232.973a1.014,1.014,0,0,0-.566.086l-3.6,2.07c-.233.135-.173.38.137.559l1.311.757a1.54,1.54,0,0,0,.634.185,1.418,1.418,0,0,0,.284,0,.738.738,0,0,0,.281-.083l3.6-2.071c.233-.134.172-.38-.138-.559l-1.311-.757a1.558,1.558,0,0,0-.633-.184m-2.115,3.525a.68.68,0,0,1-.271-.09l-1.311-.757c-.228-.132-.276-.327-.105-.426l3.6-2.071a.384.384,0,0,1,.147-.046.415.415,0,0,1,.09,0,.662.662,0,0,1,.271.09l1.311.757c.229.132.278.327.106.426l-3.6,2.07a.4.4,0,0,1-.238.048" transform="translate(-45.793 -63.073)" fill="#455a64"/>
        <path id="Path_42991" data-name="Path 42991" d="M170.888,235.7l1.551.9-.566.325a.267.267,0,0,1-.192.016l-1.153-.666c-.166-.1-.2-.244-.081-.317Z" transform="translate(-46.127 -63.814)" fill="#455a64"/>
        <path id="Path_42992" data-name="Path 42992" d="M171.443,235.355l.672-.391,1.552.9-.677.388Z" transform="translate(-46.416 -63.614)" fill="#455a64"/>
        <path id="Path_42993" data-name="Path 42993" d="M172.73,234.615l.672-.391,1.556.9-.677.388Z" transform="translate(-46.765 -63.414)" fill="#455a64"/>
        <path id="Path_42994" data-name="Path 42994" d="M174.792,233.562l1.118.645c.206.119.161.292-.115.451l-.228.131-1.551-.9.537-.31a.335.335,0,0,1,.238-.021" transform="translate(-47.113 -63.231)" fill="#455a64"/>
        <path id="Path_42995" data-name="Path 42995" d="M176.042,233.123a.953.953,0,0,1,.665.176l.244.141c.27.155.411.332.317.393l-.17.112-1.235-.718.179-.105" transform="translate(-47.613 -63.11)" fill="#455a64"/>
        <path id="Path_42996" data-name="Path 42996" d="M162.482,240.371l2.789-2.423,1.47,2.093-1.928-.525Z" transform="translate(-43.99 -64.422)" fill="#455a64"/>
        <g id="Group_4481" data-name="Group 4481" transform="translate(86.863 185.25)" opacity="0.1">
          <g id="Group_4480" data-name="Group 4480">
            <g id="Group_4479" data-name="Group 4479" clip-path="url(#clip-path-9)">
              <path id="Path_42997" data-name="Path 42997" d="M182.78,254.025l-63.67,36.76,63.671,36.863,63.669-36.863Z" transform="translate(-119.111 -254.025)" fill="#b6132c"/>
            </g>
          </g>
        </g>
        <path id="Path_42998" data-name="Path 42998" d="M240.624,344.73v.468a2.6,2.6,0,0,0,1.175,2.035L267,361.78a2.6,2.6,0,0,0,2.35,0l41.726-24.09a2.6,2.6,0,0,0,1.174-2.035v-.468a2.6,2.6,0,0,0-1.175-2.035l-25.2-14.548a2.6,2.6,0,0,0-2.35,0L241.8,342.7a2.6,2.6,0,0,0-1.175,2.035" transform="translate(-65.146 -86.183)" fill="#27debf"/>
        <path id="Path_42999" data-name="Path 42999" d="M240.624,344.73v.468a2.6,2.6,0,0,0,1.175,2.035L267,361.78a2.6,2.6,0,0,0,2.35,0l41.726-24.09a2.6,2.6,0,0,0,1.174-2.035v-.468a2.6,2.6,0,0,0-1.175-2.035l-25.2-14.548a2.6,2.6,0,0,0-2.35,0L241.8,342.7a2.6,2.6,0,0,0-1.175,2.035" transform="translate(-65.146 -86.183)" fill="#db8c98"/>
        <g id="Group_4484" data-name="Group 4484" transform="translate(203.024 232.141)" opacity="0.3">
          <g id="Group_4483" data-name="Group 4483">
            <g id="Group_4482" data-name="Group 4482" clip-path="url(#clip-path-10)">
              <path id="Path_43000" data-name="Path 43000" d="M321.3,333.153,296.1,318.6a2.6,2.6,0,0,0-2.35,0L278.4,327.469v34.592h0a2.4,2.4,0,0,0,1.175-.281L321.3,337.69a2.6,2.6,0,0,0,1.175-2.035v-.468a2.6,2.6,0,0,0-1.175-2.035" transform="translate(-278.397 -318.324)" fill="#fff"/>
            </g>
          </g>
        </g>
        <g id="Group_4490" data-name="Group 4490" transform="translate(175.478 241.286)" opacity="0.3">
          <g id="Group_4489" data-name="Group 4489">
            <g id="Group_4488" data-name="Group 4488" clip-path="url(#clip-path-12)">
              <path id="Path_43002" data-name="Path 43002" d="M268.171,330.864,241.8,346.09a2.6,2.6,0,0,0-1.174,2.035v.468a2.6,2.6,0,0,0,1.174,2.035L267,365.176a2.408,2.408,0,0,0,1.174.281h0Z" transform="translate(-240.624 -330.864)" fill="#fff"/>
            </g>
          </g>
        </g>
        <g id="Group_4493" data-name="Group 4493" transform="translate(175.478 241.286)" opacity="0.2">
          <g id="Group_4492" data-name="Group 4492">
            <g id="Group_4491" data-name="Group 4491" clip-path="url(#clip-path-12)">
              <path id="Path_43003" data-name="Path 43003" d="M268.171,330.864,241.8,346.09a2.6,2.6,0,0,0-1.174,2.035v.468a2.6,2.6,0,0,0,1.174,2.035L267,365.176a2.408,2.408,0,0,0,1.174.281h0Z" transform="translate(-240.624 -330.864)"/>
            </g>
          </g>
        </g>
        <path id="Path_43004" data-name="Path 43004" d="M263.217,356.27l-21.163-12.219a.716.716,0,0,1,0-1.356L283.78,318.6a2.6,2.6,0,0,1,2.35,0l25.2,14.548a.716.716,0,0,1,0,1.356l-6.921,4-2.423,1.4L269.6,358.6a2.6,2.6,0,0,1-2.35,0l-2.052-1.185Z" transform="translate(-65.402 -86.183)" fill="#b6132c"/>
        <g id="Group_4496" data-name="Group 4496" transform="translate(176.165 232.141)" opacity="0.3">
          <g id="Group_4495" data-name="Group 4495">
            <g id="Group_4494" data-name="Group 4494" clip-path="url(#clip-path-14)">
              <path id="Path_43005" data-name="Path 43005" d="M263.217,356.27l-21.163-12.219a.716.716,0,0,1,0-1.356L283.78,318.6a2.6,2.6,0,0,1,2.35,0l25.2,14.548a.716.716,0,0,1,0,1.356l-6.921,4-2.423,1.4L269.6,358.6a2.6,2.6,0,0,1-2.35,0l-2.052-1.185Z" transform="translate(-241.567 -318.324)" fill="#fff"/>
            </g>
          </g>
        </g>
        <g id="Group_4499" data-name="Group 4499" transform="translate(176.172 232.151)" opacity="0.15">
          <g id="Group_4498" data-name="Group 4498">
            <g id="Group_4497" data-name="Group 4497" clip-path="url(#clip-path-15)">
              <path id="Path_43006" data-name="Path 43006" d="M282.432,335.976l28.9-2.819-28.642,1.622,3.445-16.17a2.445,2.445,0,0,0-1.28-.269l-5.4,21.857-37.868,3.123a.785.785,0,0,0,.477.736l30.582-1.775-4.209,16.6,5.383-16.672,5.223-.3a2.825,2.825,0,0,0,1.724-.721h0v0a2.825,2.825,0,0,0,.882-1.516Z" transform="translate(-241.576 -318.337)"/>
            </g>
          </g>
        </g>
        <g id="Group_4502" data-name="Group 4502" transform="translate(176.175 232.152)" opacity="0.3">
          <g id="Group_4501" data-name="Group 4501">
            <g id="Group_4500" data-name="Group 4500" clip-path="url(#clip-path-16)">
              <path id="Path_43007" data-name="Path 43007" d="M250.616,342.574l28.833-2.378,1.033-4.131.57-2.3,3.807-15.426a2.354,2.354,0,0,0-1.074.27l-20.863,12.045L242.058,342.7a.849.849,0,0,0-.477.621l5.783-.477Z" transform="translate(-241.58 -318.339)" fill="#fff"/>
            </g>
          </g>
        </g>
        <path id="Path_43008" data-name="Path 43008" d="M293.785,313.554a10.548,10.548,0,0,1,9.543,0c2.635,1.521,2.635,3.988,0,5.51a10.543,10.543,0,0,1-9.543,0c-2.635-1.521-2.635-3.988,0-5.51" transform="translate(-79.004 -84.583)" fill="#f28f8f"/>
        <path id="Path_43009" data-name="Path 43009" d="M296.4,317.939a.344.344,0,0,1-.2-.069.13.13,0,0,1-.054-.133l.395-1.735c.011-.042.025-.093.044-.153a.288.288,0,0,1,.145-.158l.966-.557a.479.479,0,0,1,.427,0l5.11,2.951a.131.131,0,0,1,0,.246l-1.036.6a.479.479,0,0,1-.427,0l-3.457-2-.229.955a.178.178,0,0,1-.114.117.464.464,0,0,1-.226.034Z" transform="translate(-80.177 -85.306)" fill="#fafafa"/>
      </g>
    </g>
    <path id="Path_43010" data-name="Path 43010" d="M120.846,259.865l62.405-36.03,62.406,36.03-62.405,36.03Z" transform="translate(-32.718 -60.601)"/>
    <path id="Path_43011" data-name="Path 43011" d="M182.78,200.961V139.348l-63.67,36.761,53.27,30.858Z" transform="translate(-32.248 -37.727)" fill="#37474f"/>
    <path id="Path_43012" data-name="Path 43012" d="M206.418,139.349v61.613l10.4,6,53.268-30.858Z" transform="translate(-55.885 -37.727)" fill="#263238"/>
    <path id="Path_43013" data-name="Path 43013" d="M119.111,189.756v60.153l63.67,36.759V226.619Z" transform="translate(-32.248 -51.374)" fill="#b6132c"/>
    <g id="Group_4509" data-name="Group 4509">
      <g id="Group_4508" data-name="Group 4508" clip-path="url(#clip-path)">
        <g id="Group_4507" data-name="Group 4507" transform="translate(86.863 138.382)" opacity="0.38">
          <g id="Group_4506" data-name="Group 4506">
            <g id="Group_4505" data-name="Group 4505" clip-path="url(#clip-path-18)">
              <path id="Path_43014" data-name="Path 43014" d="M119.111,189.756v60.153l63.67,36.759V226.619Z" transform="translate(-119.111 -189.756)"/>
            </g>
          </g>
        </g>
      </g>
    </g>
    <path id="Path_43015" data-name="Path 43015" d="M206.418,226.619v60.049l63.67-36.761V189.756Z" transform="translate(-55.885 -51.374)" fill="#b6132c"/>
    <g id="Group_4523" data-name="Group 4523">
      <g id="Group_4522" data-name="Group 4522" clip-path="url(#clip-path)">
        <g id="Group_4512" data-name="Group 4512" transform="translate(150.532 138.382)" opacity="0.23">
          <g id="Group_4511" data-name="Group 4511">
            <g id="Group_4510" data-name="Group 4510" clip-path="url(#clip-path-20)">
              <path id="Path_43016" data-name="Path 43016" d="M206.418,226.619v60.049l63.67-36.761V189.756Z" transform="translate(-206.417 -189.756)"/>
            </g>
          </g>
        </g>
        <g id="Group_4515" data-name="Group 4515" transform="translate(150.532 175.244)" opacity="0.7">
          <g id="Group_4514" data-name="Group 4514">
            <g id="Group_4513" data-name="Group 4513" clip-path="url(#clip-path-21)">
              <path id="Path_43017" data-name="Path 43017" d="M206.419,240.3l1.256,57.755,46.241-25.128-47.5,27.423Z" transform="translate(-206.417 -240.304)" fill="#fff"/>
            </g>
          </g>
        </g>
        <path id="Path_43018" data-name="Path 43018" d="M229.731,297.936a.34.34,0,0,1-.34-.34v-7.615a.34.34,0,0,1,.68,0V297.6a.34.34,0,0,1-.34.34" transform="translate(-62.105 -78.417)" fill="#f0f0f0"/>
        <path id="Path_43019" data-name="Path 43019" d="M228.367,292.51a.352.352,0,0,1-.135-.028.341.341,0,0,1-.177-.448l1.21-2.794,1.349,1.558a.34.34,0,1,1-.514.446l-.641-.74-.78,1.8a.342.342,0,0,1-.312.2" transform="translate(-61.736 -78.309)" fill="#f0f0f0"/>
        <path id="Path_43020" data-name="Path 43020" d="M234.04,295.478a.34.34,0,0,1-.34-.34v-7.613a.34.34,0,1,1,.68,0v7.613a.34.34,0,0,1-.34.34" transform="translate(-63.272 -77.752)" fill="#f0f0f0"/>
        <path id="Path_43021" data-name="Path 43021" d="M232.677,290.053a.352.352,0,0,1-.135-.028.341.341,0,0,1-.177-.448l1.209-2.792,1.349,1.556a.34.34,0,0,1-.513.446l-.642-.741-.779,1.8a.342.342,0,0,1-.312.2" transform="translate(-62.903 -77.644)" fill="#f0f0f0"/>
        <path id="Path_43022" data-name="Path 43022" d="M217.144,305.681a.749.749,0,0,1-.371-.1.9.9,0,0,1-.407-.816v-.932a.34.34,0,0,1,.68,0v.932c0,.139.039.211.065.225s.1.011.222-.058a1.989,1.989,0,0,0,.632-1.536v-3.9a.34.34,0,0,1,.68,0v3.9a2.585,2.585,0,0,1-.967,2.122,1.061,1.061,0,0,1-.533.158" transform="translate(-58.579 -80.995)" fill="#f0f0f0"/>
        <path id="Path_43023" data-name="Path 43023" d="M212.525,300.552v-.588a9.621,9.621,0,0,1,4.346-7.53,2.878,2.878,0,0,1,4.687,2.707v.2Zm6.38-8.055a3.469,3.469,0,0,0-1.695.527,8.979,8.979,0,0,0-3.974,6.333l7.638-4.41a2.519,2.519,0,0,0-1.049-2.217,1.826,1.826,0,0,0-.92-.233" transform="translate(-57.539 -79.006)" fill="#f0f0f0"/>
        <path id="Path_43024" data-name="Path 43024" d="M182.78,139.349l-63.67,36.76,63.671,36.863,63.669-36.863Z" transform="translate(-32.248 -37.727)" fill="#b6132c"/>
        <g id="Group_4518" data-name="Group 4518" transform="translate(86.863 101.622)" opacity="0.1">
          <g id="Group_4517" data-name="Group 4517">
            <g id="Group_4516" data-name="Group 4516" clip-path="url(#clip-path-9)">
              <path id="Path_43025" data-name="Path 43025" d="M182.78,139.349l-63.67,36.76,63.671,36.863,63.669-36.863Z" transform="translate(-119.111 -139.349)"/>
            </g>
          </g>
        </g>
        <g id="Group_4521" data-name="Group 4521" transform="translate(86.863 138.382)" opacity="0.7">
          <g id="Group_4520" data-name="Group 4520">
            <g id="Group_4519" data-name="Group 4519" clip-path="url(#clip-path-23)">
              <path id="Path_43026" data-name="Path 43026" d="M119.111,189.756l63.671,34.583,63.669-34.583-63.669,36.863Z" transform="translate(-119.111 -189.756)" fill="#fff"/>
            </g>
          </g>
        </g>
        <path id="Path_43027" data-name="Path 43027" d="M155.337,166.732l63.721,36.79,9.8-5.673-63.711-36.783Z" transform="translate(-42.056 -43.607)" fill="#ffe5e9"/>
        <path id="Path_43028" data-name="Path 43028" d="M252.519,211.5v12.467l-1.184-.677-1.232,2.127-1.232-.725-1.232,2.151-1.232-.725-1.232,2.126-1.232-.7-1.232,2.126V217.176Z" transform="translate(-65.711 -57.261)" fill="#27debf"/>
        <path id="Path_43029" data-name="Path 43029" d="M252.519,211.5v12.467l-1.184-.677-1.232,2.127-1.232-.725-1.232,2.151-1.232-.725-1.232,2.126-1.232-.7-1.232,2.126V217.176Z" transform="translate(-65.711 -57.261)" fill="#ffe5e9"/>
      </g>
    </g>
    <g id="Group_4531" data-name="Group 4531">
      <g id="Group_4530" data-name="Group 4530" clip-path="url(#clip-path)">
        <path id="Path_43030" data-name="Path 43030" d="M138.772,93.089l-7.8,4.5-7.8,4.5,6.035,15.85a1.566,1.566,0,0,0,.65.8c.838.51,9,5.185,9.275,5.355a1.6,1.6,0,0,0,2.382-.957l6.532-24.7Z" transform="translate(-33.348 -25.203)" fill="#b6132c"/>
        <g id="Group_4526" data-name="Group 4526" transform="translate(89.825 67.886)" opacity="0.2">
          <g id="Group_4525" data-name="Group 4525">
            <g id="Group_4524" data-name="Group 4524" clip-path="url(#clip-path-25)">
              <path id="Path_43031" data-name="Path 43031" d="M138.772,93.089l-7.8,4.5-7.8,4.5,6.035,15.85a1.566,1.566,0,0,0,.65.8c.838.51,9,5.185,9.275,5.355a1.6,1.6,0,0,0,2.382-.957l6.532-24.7Z" transform="translate(-123.172 -93.089)"/>
            </g>
          </g>
        </g>
        <path id="Path_43032" data-name="Path 43032" d="M135.891,109.438l7.8-4.5,7.8-4.5-6.532,24.7a1.6,1.6,0,0,1-3.033.16Z" transform="translate(-36.791 -27.191)" fill="#b6132c"/>
        <path id="Path_43033" data-name="Path 43033" d="M173.45,27.631c0-3.114-1.081-5.309-2.832-6.354-1.668-.995-7.7-4.435-9.36-5.392-1.785-1.027-4.248-.877-6.971.695L74.516,62.636v39.27l9.275,5.343,79.772-46.056c5.461-3.153,9.887-10.819,9.887-17.125Z" transform="translate(-20.174 -4.124)" fill="#b6132c"/>
        <g id="Group_4529" data-name="Group 4529" transform="translate(54.341 11.108)" opacity="0.5">
          <g id="Group_4528" data-name="Group 4528">
            <g id="Group_4527" data-name="Group 4527" clip-path="url(#clip-path-26)">
              <path id="Path_43034" data-name="Path 43034" d="M173.45,27.631c0-3.114-1.081-5.309-2.832-6.354-1.668-.995-7.7-4.435-9.36-5.392-1.785-1.027-4.248-.877-6.971.695L74.516,62.636v39.27l9.275,5.343,79.772-46.056c5.461-3.153,9.887-10.819,9.887-17.125Z" transform="translate(-74.516 -15.232)" fill="#fff"/>
            </g>
          </g>
        </g>
        <path id="Path_43035" data-name="Path 43035" d="M167.006,63.176c5.461-3.153,9.887-10.82,9.887-17.125V29.614c0-6.306-4.427-8.861-9.887-5.709L87.234,69.962v39.27Z" transform="translate(-23.618 -6.107)" fill="#b6132c"/>
        <path id="Path_43036" data-name="Path 43036" d="M73.355,68.892v0l-.044-.023-.005,0L62.412,62.571l-.01-.005-.063-.033v0c-5.078-2.574-11.845-1.883-19.147,2.82C28.519,74.8,17.313,96.592,18.159,114.023c.422,8.688,3.729,14.735,8.787,17.363h0l.045.023.005,0,10.91,6.276.005,0,.053.027v0c5.079,2.582,11.867,1.828,19.177-2.879C71.812,125.389,83.02,103.6,82.173,86.171c-.422-8.688-3.76-14.651-8.818-17.279" transform="translate(-4.904 -16.531)" fill="#37474f"/>
        <path id="Path_43037" data-name="Path 43037" d="M37.536,148.087,27,142.008h-.008l-.05-.03c-5.055-2.634-8.361-8.682-8.782-17.358-.377-7.773,1.647-16.408,5.3-24.425l10.881,6.358c-3.657,8.017-5.674,16.653-5.3,24.426.413,8.5,3.619,14.392,8.5,17.107" transform="translate(-4.904 -27.127)" fill="#263238"/>
        <path id="Path_43038" data-name="Path 43038" d="M61.182,137.183c14.671-9.448,25.879-31.237,25.032-48.666s-13.426-23.9-28.1-14.452S32.238,105.3,33.084,122.73s13.426,23.9,28.1,14.453" transform="translate(-8.945 -18.876)" fill="#455a64"/>
        <path id="Path_43039" data-name="Path 43039" d="M65.376,108.88a4.164,4.164,0,0,1-2.105-.554c-1.722-.995-2.71-3.224-2.71-6.118,0-5.218,3.207-11.314,7.147-13.59a5.064,5.064,0,0,1,5.168-.358c1.722.994,2.71,3.224,2.71,6.117,0,5.219-3.207,11.315-7.148,13.591a6.172,6.172,0,0,1-3.062.912m5.391-19.712a4.738,4.738,0,0,0-2.329.712c-3.539,2.043-6.417,7.573-6.417,12.327,0,2.358.721,4.127,1.979,4.854a3.681,3.681,0,0,0,3.708-.357c3.539-2.043,6.418-7.574,6.418-12.328,0-2.358-.721-4.127-1.979-4.853a2.727,2.727,0,0,0-1.38-.355" transform="translate(-16.396 -23.746)" fill="#b6132c"/>
        <path id="Path_43040" data-name="Path 43040" d="M52.338,112.378a.73.73,0,0,1-.365-1.362l6.537-3.775a.73.73,0,0,1,.73,1.264L52.7,112.28a.735.735,0,0,1-.364.1" transform="translate(-13.972 -29.008)" fill="#b6132c"/>
        <path id="Path_43041" data-name="Path 43041" d="M55.061,125.563a.731.731,0,0,1-.71-.564L49.607,104.71c-.023-.1-.113-.422-.306-.459l-1.837-.346a.73.73,0,0,1,.271-1.434l1.837.346a1.9,1.9,0,0,1,1.457,1.56l4.521,19.333,16.618-9.595a2.827,2.827,0,0,0,1.091-1.8l3.185-17.3c.113-.614-.028-.948-.111-1.006-.012-.009-.1-.007-.249.079l-4.567,2.637a.73.73,0,1,1-.73-1.264l4.567-2.637a1.643,1.643,0,0,1,1.822-.007,2.384,2.384,0,0,1,.7,2.463l-3.185,17.3a4.218,4.218,0,0,1-1.8,2.8l-17.47,10.086a.73.73,0,0,1-.365.1" transform="translate(-12.689 -25.056)" fill="#b6132c"/>
        <path id="Path_43042" data-name="Path 43042" d="M56.091,139.626a1.823,1.823,0,0,1-.923-.246,2.629,2.629,0,0,1-1.118-2.392,5.933,5.933,0,0,1,2.541-4.789l17.519-10.115a.73.73,0,1,1,.73,1.264L57.322,133.463a4.482,4.482,0,0,0-1.811,3.525c0,.667.2,1.02.387,1.128.214.123.527-.019.694-.115l18.751-10.825a.73.73,0,1,1,.73,1.264L57.322,139.265a2.477,2.477,0,0,1-1.23.361" transform="translate(-14.634 -33.027)" fill="#b6132c"/>
        <path id="Path_43043" data-name="Path 43043" d="M59.465,153.084a1.839,1.839,0,0,1-.928-.246,2.646,2.646,0,0,1-1.123-2.407,5.972,5.972,0,0,1,2.558-4.823,2.107,2.107,0,0,1,2.165-.116,2.643,2.643,0,0,1,1.124,2.406,5.976,5.976,0,0,1-2.559,4.823,2.49,2.49,0,0,1-1.238.362m1.741-6.377a1.105,1.105,0,0,0-.5.165,4.526,4.526,0,0,0-1.828,3.56c0,.675.2,1.033.393,1.143.217.124.536-.018.705-.116A4.527,4.527,0,0,0,61.8,147.9c0-.675-.2-1.033-.393-1.142a.4.4,0,0,0-.2-.05" transform="translate(-15.544 -39.323)" fill="#b6132c"/>
        <path id="Path_43044" data-name="Path 43044" d="M76.355,143.333a1.837,1.837,0,0,1-.928-.246A2.646,2.646,0,0,1,74.3,140.68a5.972,5.972,0,0,1,2.558-4.823,2.1,2.1,0,0,1,2.165-.116,2.643,2.643,0,0,1,1.124,2.406,5.976,5.976,0,0,1-2.559,4.823,2.49,2.49,0,0,1-1.238.362m1.741-6.378a1.1,1.1,0,0,0-.5.166,4.525,4.525,0,0,0-1.828,3.56c0,.675.2,1.033.393,1.143.217.125.537-.018.705-.116a4.527,4.527,0,0,0,1.829-3.56c0-.675-.2-1.033-.393-1.142a.4.4,0,0,0-.2-.05" transform="translate(-20.117 -36.683)" fill="#b6132c"/>
        <path id="Path_43045" data-name="Path 43045" d="M67.093,146.866a.73.73,0,0,1-.366-1.362l3.654-2.11a.73.73,0,0,1,.73,1.264l-3.654,2.11a.735.735,0,0,1-.364.1" transform="translate(-17.967 -38.796)" fill="#b6132c"/>
        <path id="Path_43046" data-name="Path 43046" d="M68.311,104.8a.731.731,0,0,1-.494-.193l-2.183-2a.73.73,0,1,1,.987-1.074l1.442,1.322,3.911-8.569a.73.73,0,1,1,1.327.607l-4.328,9.482a.727.727,0,0,1-.519.412.752.752,0,0,1-.144.015" transform="translate(-17.706 -25.411)" fill="#ffe5e9"/>
        <path id="Path_43047" data-name="Path 43047" d="M131.193,73.273a8.28,8.28,0,0,1,.233-1.682,7.5,7.5,0,0,1,.581-1.6,6.681,6.681,0,0,1,.915-1.378,4.757,4.757,0,0,1,1.243-1.033,2.521,2.521,0,0,1,1.238-.4,1.39,1.39,0,0,1,.92.319,2.048,2.048,0,0,1,.581.927,5.018,5.018,0,0,1,.233,1.413c.012.412.019.849.019,1.308s-.007.893-.019,1.3a8.372,8.372,0,0,1-.233,1.681,7.781,7.781,0,0,1-.581,1.605,6.428,6.428,0,0,1-.92,1.381,4.886,4.886,0,0,1-1.238,1.023,2.587,2.587,0,0,1-1.243.41,1.335,1.335,0,0,1-.915-.322,2.071,2.071,0,0,1-.581-.933,4.962,4.962,0,0,1-.233-1.413c-.012-.393-.02-.82-.02-1.279s.007-.9.02-1.331m4.182.123c.007-.18.012-.379.02-.6s.009-.441.009-.667,0-.44-.009-.646-.013-.392-.02-.555a2.6,2.6,0,0,0-.1-.617.945.945,0,0,0-.229-.4.523.523,0,0,0-.367-.147,1,1,0,0,0-.514.164,1.938,1.938,0,0,0-.516.43,2.614,2.614,0,0,0-.367.571,3.267,3.267,0,0,0-.228.667,4.192,4.192,0,0,0-.1.733c-.014.174-.021.367-.024.578s-.005.432-.005.656,0,.445.005.657.01.405.024.574a1.629,1.629,0,0,0,.327,1.028q.291.315.882-.026a2.066,2.066,0,0,0,.875-.99,4.094,4.094,0,0,0,.334-1.41" transform="translate(-35.514 -18.189)" fill="#fafafa"/>
        <path id="Path_43048" data-name="Path 43048" d="M143.72,62.274a3.434,3.434,0,0,1,1.124-.444,1.214,1.214,0,0,1,.844.13,1.339,1.339,0,0,1,.534.74,4.286,4.286,0,0,1,.185,1.382,6.355,6.355,0,0,1-.3,2,5.193,5.193,0,0,1-.839,1.592l1.182,2.808a.4.4,0,0,1,.028.145.62.62,0,0,1-.061.263.394.394,0,0,1-.148.18l-1.3.748q-.19.11-.271.024a.665.665,0,0,1-.128-.19l-1.057-2.528-.877.507v3.138a.743.743,0,0,1-.076.323.482.482,0,0,1-.181.222l-1.248.72a.139.139,0,0,1-.182-.012.317.317,0,0,1-.076-.235V64.31a.753.753,0,0,1,.076-.323.488.488,0,0,1,.182-.222Zm-1.077,5.065,1.077-.621a2,2,0,0,0,.661-.616,1.743,1.743,0,0,0,.263-1c0-.411-.087-.644-.263-.7a.849.849,0,0,0-.661.148l-1.077.621Z" transform="translate(-38.142 -16.734)" fill="#fafafa"/>
        <path id="Path_43049" data-name="Path 43049" d="M152.742,57.1a2.576,2.576,0,0,1,1.2-.392,1.412,1.412,0,0,1,.939.3,2.045,2.045,0,0,1,.619.941,5.007,5.007,0,0,1,.252,1.5q.01.3.009.559v.975q0,.249-.009.548a8.463,8.463,0,0,1-.248,1.8,7.929,7.929,0,0,1-.605,1.641,6.529,6.529,0,0,1-.919,1.374,4.729,4.729,0,0,1-1.191.988l-2.573,1.486a.137.137,0,0,1-.181-.014.31.31,0,0,1-.076-.235V59.107a.747.747,0,0,1,.076-.322.484.484,0,0,1,.181-.222Zm1.248,3.314q-.057-1.655-1.3-.939l-.972.562v5.573l1.02-.589a2.639,2.639,0,0,0,1.248-2.407q.01-.314.009-.586V60.985c0-.176,0-.365-.009-.567" transform="translate(-40.6 -15.354)" fill="#fafafa"/>
        <path id="Path_43050" data-name="Path 43050" d="M164.178,58.147a.14.14,0,0,1,.182.012.321.321,0,0,1,.076.235v1.556a.753.753,0,0,1-.076.322.49.49,0,0,1-.182.223L159.662,63.1a.138.138,0,0,1-.182-.012.313.313,0,0,1-.077-.235V53.379a.746.746,0,0,1,.077-.323.48.48,0,0,1,.182-.222l4.44-2.564a.138.138,0,0,1,.181.014.311.311,0,0,1,.077.235v1.553a.744.744,0,0,1-.077.323.487.487,0,0,1-.181.222l-2.935,1.694V55.9l2.725-1.574a.138.138,0,0,1,.181.013.313.313,0,0,1,.077.234v1.555a.746.746,0,0,1-.077.323.486.486,0,0,1-.181.222l-2.725,1.572v1.643Z" transform="translate(-43.157 -13.603)" fill="#fafafa"/>
        <path id="Path_43051" data-name="Path 43051" d="M170.645,46.729a3.434,3.434,0,0,1,1.124-.444,1.214,1.214,0,0,1,.844.13,1.333,1.333,0,0,1,.534.74,4.286,4.286,0,0,1,.185,1.382,6.377,6.377,0,0,1-.295,2,5.183,5.183,0,0,1-.839,1.591l1.181,2.809a.389.389,0,0,1,.028.145.609.609,0,0,1-.061.263.394.394,0,0,1-.148.18l-1.3.748q-.19.11-.271.024a.665.665,0,0,1-.128-.19l-1.057-2.528-.877.507v3.138a.744.744,0,0,1-.077.323.472.472,0,0,1-.181.222l-1.248.721a.138.138,0,0,1-.182-.012.314.314,0,0,1-.077-.235V48.765a.744.744,0,0,1,.077-.323.482.482,0,0,1,.182-.222Zm-1.076,5.065,1.076-.621a2,2,0,0,0,.662-.616,1.755,1.755,0,0,0,.262-1q0-.616-.262-.7a.85.85,0,0,0-.662.148l-1.076.621Z" transform="translate(-45.431 -12.525)" fill="#fafafa"/>
        <path id="Path_43052" data-name="Path 43052" d="M116.54,102.684c-.007.131-.011.31-.014.537s-.006.461-.006.7,0,.473.006.7.007.4.014.528a3.327,3.327,0,0,0,.085.6.918.918,0,0,0,.211.422.511.511,0,0,0,.361.165,1.01,1.01,0,0,0,.543-.174,2.092,2.092,0,0,0,.534-.426,2.7,2.7,0,0,0,.343-.484,2.492,2.492,0,0,0,.2-.492q.071-.247.109-.445a1.788,1.788,0,0,1,.106-.39.5.5,0,0,1,.218-.223l1.248-.72a.113.113,0,0,1,.148.01.255.255,0,0,1,.063.192,5.834,5.834,0,0,1-.238,1.545,7.224,7.224,0,0,1-1.568,2.82,4.86,4.86,0,0,1-1.167.959,2.467,2.467,0,0,1-1.224.392,1.392,1.392,0,0,1-.919-.327,2.041,2.041,0,0,1-.587-.93,4.973,4.973,0,0,1-.233-1.4q-.019-.591-.019-1.28t.019-1.331a7.673,7.673,0,0,1,.228-1.666,7.951,7.951,0,0,1,.586-1.607,6.642,6.642,0,0,1,.92-1.389,4.776,4.776,0,0,1,1.229-1.025,2.616,2.616,0,0,1,1.167-.387,1.587,1.587,0,0,1,.939.228,1.684,1.684,0,0,1,.629.782,3.3,3.3,0,0,1,.238,1.27.6.6,0,0,1-.063.263.388.388,0,0,1-.148.181l-1.248.721c-.108.063-.18.073-.218.031a.644.644,0,0,1-.106-.27,2.06,2.06,0,0,0-.109-.318.537.537,0,0,0-.548-.344,1.2,1.2,0,0,0-.534.191,1.984,1.984,0,0,0-.543.453,2.565,2.565,0,0,0-.361.583,2.932,2.932,0,0,0-.211.664,5.218,5.218,0,0,0-.085.694" transform="translate(-31.07 -26.411)" fill="#fafafa"/>
        <path id="Path_43053" data-name="Path 43053" d="M123.962,98.321a8.28,8.28,0,0,1,.233-1.682,7.534,7.534,0,0,1,.581-1.6,6.71,6.71,0,0,1,.915-1.378,4.757,4.757,0,0,1,1.243-1.033,2.525,2.525,0,0,1,1.238-.4,1.39,1.39,0,0,1,.92.319,2.036,2.036,0,0,1,.581.927,4.988,4.988,0,0,1,.233,1.413q.019.618.019,1.308t-.019,1.3a8.31,8.31,0,0,1-.233,1.681,7.7,7.7,0,0,1-.581,1.605,6.427,6.427,0,0,1-.92,1.381,4.861,4.861,0,0,1-1.238,1.023,2.587,2.587,0,0,1-1.243.41,1.336,1.336,0,0,1-.915-.322,2.077,2.077,0,0,1-.581-.933,4.964,4.964,0,0,1-.233-1.413q-.02-.59-.02-1.279t.02-1.331m4.182.123c.006-.18.012-.379.018-.6s.01-.441.01-.667,0-.44-.01-.646-.012-.392-.018-.555a2.6,2.6,0,0,0-.1-.617.945.945,0,0,0-.228-.4.525.525,0,0,0-.368-.147,1,1,0,0,0-.514.164,1.95,1.95,0,0,0-.516.43,2.613,2.613,0,0,0-.366.571,3.223,3.223,0,0,0-.229.667,4.411,4.411,0,0,0-.1.733q-.019.261-.023.578c0,.213-.005.432-.005.656s0,.445.005.657.011.405.023.574a1.633,1.633,0,0,0,.329,1.028q.29.315.882-.026a2.073,2.073,0,0,0,.876-.989,4.135,4.135,0,0,0,.334-1.411" transform="translate(-33.556 -24.97)" fill="#fafafa"/>
        <path id="Path_43054" data-name="Path 43054" d="M137.984,96.357a.227.227,0,0,1-.262.018.417.417,0,0,1-.128-.131l-2.182-3.756v4.958a.748.748,0,0,1-.076.322.484.484,0,0,1-.182.222l-1.248.721a.138.138,0,0,1-.182-.012.314.314,0,0,1-.076-.236V88.988a.732.732,0,0,1,.076-.322.481.481,0,0,1,.182-.223l.99-.572a.231.231,0,0,1,.262-.02.425.425,0,0,1,.129.132l2.182,3.757V86.782a.735.735,0,0,1,.077-.322.477.477,0,0,1,.18-.222l1.248-.72a.136.136,0,0,1,.18.012.309.309,0,0,1,.077.235V95.24a.733.733,0,0,1-.077.322.481.481,0,0,1-.18.222Z" transform="translate(-36.184 -23.146)" fill="#fafafa"/>
        <path id="Path_43055" data-name="Path 43055" d="M147.745,80.607a.139.139,0,0,1,.182.013.315.315,0,0,1,.076.235v1.554a.752.752,0,0,1-.076.322.484.484,0,0,1-.182.222L144.9,84.6v2.01l2.659-1.534a.139.139,0,0,1,.181.012.314.314,0,0,1,.076.235v1.555a.745.745,0,0,1-.076.323.481.481,0,0,1-.181.221L144.9,88.955v3.169a.74.74,0,0,1-.076.322.475.475,0,0,1-.18.222l-1.249.721a.137.137,0,0,1-.181-.013.311.311,0,0,1-.076-.235V83.665a.744.744,0,0,1,.076-.322.487.487,0,0,1,.181-.222Z" transform="translate(-38.752 -21.816)" fill="#fafafa"/>
        <path id="Path_43056" data-name="Path 43056" d="M151.451,89.4a.138.138,0,0,1-.182-.012.312.312,0,0,1-.076-.235V79.677a.748.748,0,0,1,.076-.323.481.481,0,0,1,.182-.222l1.248-.721a.139.139,0,0,1,.182.013.315.315,0,0,1,.076.235v9.475a.756.756,0,0,1-.076.323.475.475,0,0,1-.182.221Z" transform="translate(-40.934 -21.222)" fill="#fafafa"/>
        <path id="Path_43057" data-name="Path 43057" d="M158.28,74.741A3.414,3.414,0,0,1,159.4,74.3a1.211,1.211,0,0,1,.844.129,1.34,1.34,0,0,1,.534.74,4.286,4.286,0,0,1,.185,1.382,6.355,6.355,0,0,1-.3,2,5.193,5.193,0,0,1-.839,1.592l1.182,2.808a.4.4,0,0,1,.028.145.619.619,0,0,1-.061.263.394.394,0,0,1-.148.18l-1.3.748q-.189.11-.271.024a.671.671,0,0,1-.128-.189l-1.057-2.529-.877.507v3.138a.753.753,0,0,1-.076.323.482.482,0,0,1-.181.222l-1.249.72a.138.138,0,0,1-.182-.012.317.317,0,0,1-.076-.235V76.777a.753.753,0,0,1,.076-.323.491.491,0,0,1,.182-.222ZM157.2,79.806l1.077-.621a2,2,0,0,0,.661-.616,1.749,1.749,0,0,0,.263-1q0-.616-.263-.7a.849.849,0,0,0-.661.148l-1.077.621Z" transform="translate(-42.084 -20.109)" fill="#fafafa"/>
        <path id="Path_43058" data-name="Path 43058" d="M167.307,76.613a.621.621,0,0,1-.128-.167l-.9-1.9V79.4a.755.755,0,0,1-.076.322.484.484,0,0,1-.181.222l-1.249.721a.137.137,0,0,1-.181-.014.313.313,0,0,1-.076-.235V70.94a.757.757,0,0,1,.076-.322.484.484,0,0,1,.181-.222l1.106-.638q.19-.11.286,0a.927.927,0,0,1,.124.164l1.544,3.172,1.544-4.954a3.132,3.132,0,0,1,.123-.306.678.678,0,0,1,.285-.327l1.106-.638a.138.138,0,0,1,.181.013.312.312,0,0,1,.076.235v9.475a.745.745,0,0,1-.076.323.477.477,0,0,1-.181.221l-1.248.721a.137.137,0,0,1-.181-.013.309.309,0,0,1-.077-.234V72.75l-.9,2.937a2.541,2.541,0,0,1-.129.316.558.558,0,0,1-.224.255l-.61.352c-.1.055-.17.056-.224,0" transform="translate(-44.542 -18.095)" fill="#fafafa"/>
        <path id="Path_43059" data-name="Path 43059" d="M180.215,69.762a.138.138,0,0,1,.181.012.32.32,0,0,1,.076.235v1.556a.755.755,0,0,1-.076.322.491.491,0,0,1-.181.222L175.7,74.715a.139.139,0,0,1-.182-.012.317.317,0,0,1-.077-.235V64.994a.754.754,0,0,1,.077-.323.484.484,0,0,1,.182-.222l4.439-2.563a.138.138,0,0,1,.182.014.312.312,0,0,1,.076.234v1.554a.752.752,0,0,1-.076.322.483.483,0,0,1-.182.222L177.2,65.926V67.51l2.725-1.573a.137.137,0,0,1,.181.013.311.311,0,0,1,.077.233v1.556a.746.746,0,0,1-.077.322.482.482,0,0,1-.181.222L177.2,69.858V71.5Z" transform="translate(-47.499 -16.747)" fill="#fafafa"/>
        <path id="Path_43060" data-name="Path 43060" d="M186.624,58.416a2.578,2.578,0,0,1,1.2-.393,1.408,1.408,0,0,1,.939.3,2.049,2.049,0,0,1,.619.941,5,5,0,0,1,.253,1.5c.006.2.009.387.009.56v.975c0,.166,0,.349-.009.548a8.479,8.479,0,0,1-.249,1.8,7.818,7.818,0,0,1-.605,1.639,6.489,6.489,0,0,1-.918,1.374,4.7,4.7,0,0,1-1.192.988L184.1,70.141a.138.138,0,0,1-.182-.012.314.314,0,0,1-.076-.235V60.418a.74.74,0,0,1,.076-.322.485.485,0,0,1,.182-.223Zm1.248,3.313q-.057-1.654-1.3-.939l-.972.56v5.574l1.02-.589a2.639,2.639,0,0,0,1.248-2.407c.007-.209.009-.4.009-.585V62.295q0-.264-.009-.566" transform="translate(-49.773 -15.709)" fill="#fafafa"/>
      </g>
    </g>
    <g id="Group_4554" data-name="Group 4554">
      <g id="Group_4553" data-name="Group 4553" clip-path="url(#clip-path)">
        <path id="Path_43061" data-name="Path 43061" d="M369.894,139.148a43.277,43.277,0,0,0-2.247-6.691s-21.784,2.578-27.411,2.689c-2.106,9.242-2.774,11.788-4.439,17.264a257.14,257.14,0,0,0-5.96,28.584c-.357,2.429,1.649,8.423,2.541,10.71,5.2,13.332,13.784,34.619,13.784,34.619A11.393,11.393,0,0,1,346.9,232a30.214,30.214,0,0,1-2.461,8.322,22.571,22.571,0,0,1-1.348,2.706c-1.19,2.634.486,3.095,3.155,1.914,2.817-1.246,4.608-4.234,5.378-6.4,1.15-3.225,3.349-8.3,3.256-9.937l.032-.03-.053-.182h0l-.412-3.239s-1.973-10-3.161-21.518c-.99-9.6-1.225-12.221-5.871-19.578l12.575-26.773c3.971-7.092,11.907-18.145,11.907-18.145" transform="translate(-89.288 -35.861)" fill="#ffa8a7"/>
        <path id="Path_43062" data-name="Path 43062" d="M362.889,267.6a3.447,3.447,0,0,1,.617,1.924c-.472,2.378-3.051,4.039-4.082,5.527s-2.1,4.766-2.778,6.707a8.635,8.635,0,0,1-6.1,5.227,4.992,4.992,0,0,1-4.429-1.314s16.09-18.784,16.772-18.071" transform="translate(-93.707 -72.445)" fill="#37474f"/>
        <path id="Path_43063" data-name="Path 43063" d="M360.406,261.2c.8,1.216,2.668,3.093,1.794,5.2-.758,1.83-2.639,3.576-3.891,5.028a9.491,9.491,0,0,0-1.356,2.632c-.484,1.088-1.235,3.677-1.808,4.726a9.674,9.674,0,0,1-1.774,2.252,9.072,9.072,0,0,1-2.549,1.83c-1.49.673-3.9,1.106-5.354.346a2.973,2.973,0,0,1-1.13-4.512c.385-.556.764-1.111,1.184-1.641a16.682,16.682,0,0,0,1.761-3.334c.338-.74,1.469-3.792,1.689-4.492.454-1.44,1.114-3.517.906-4.475a5.015,5.015,0,0,1-.212-1.458.894.894,0,0,1,.56-.667,4.737,4.737,0,0,1,2.344-.2c.691.04,1.363.238,2.051.3a3.446,3.446,0,0,0,3.592-3.454l-.179-.673c.688-.543,1.48,1.222,2.371,2.582" transform="translate(-93.059 -69.991)" fill="#455a64"/>
        <path id="Path_43064" data-name="Path 43064" d="M350.969,175.494s-10.523-1.174-19-7.859c0,0,7.119-27.8,9.038-32.747l23.337,11.576Z" transform="translate(-89.876 -36.519)" fill="#455a64"/>
        <path id="Path_43065" data-name="Path 43065" d="M353.269,175.188l-2.013-15.639a13.438,13.438,0,0,1-6.628-8.564,14.847,14.847,0,0,0,7.595,6.032L355.3,177.9l-.9,1.955s-1.119-.126-2.915-.524Z" transform="translate(-93.305 -40.878)" fill="#37474f"/>
        <path id="Path_43066" data-name="Path 43066" d="M400.684,157.417a4.689,4.689,0,0,1,2.1-2.03,5.171,5.171,0,0,1,5.251,1.633c1.626,1.941,1.961,4.669,3,6.155s3.784,3.508,5.367,4.819a9.681,9.681,0,0,1,2.86,7.718,4.139,4.139,0,0,1-2.464,3.64Z" transform="translate(-108.481 -42.015)" fill="#37474f"/>
        <path id="Path_43067" data-name="Path 43067" d="M400.448,157.042c1.313-.622,3.69-.247,5.361,1.308,1.451,1.35,2.429,3.722,3.353,5.4a9.494,9.494,0,0,0,1.993,2.188c.85.834,3.014,2.442,3.8,3.345a9.675,9.675,0,0,1,1.491,2.449,9.075,9.075,0,0,1,.824,3.027c.11,1.631-.326,4.042-1.546,5.138a2.973,2.973,0,0,1-4.622-.518c-.386-.554-.774-1.1-1.124-1.682a17.365,17.365,0,0,0-2.4-3.016,20.827,20.827,0,0,0-3.915-3.01c-.156-.09-.313-.195-.467-.269-1.745-.837-3.522-1.539-3.764-2.163-.2-.52-.667-6.105-2.047-7.279-.364-.309-.171-.836.16-1.321s1.59-2.978,2.9-3.6" transform="translate(-107.534 -42.44)" fill="#455a64"/>
        <path id="Path_43068" data-name="Path 43068" d="M375.142,131.926c2.519,7.543,3.306,11.8,3.142,20.731-.107,5.859-1,19.665-1.538,26.383s-.587,11.727-3.147,13.854-8.041,1.464-10.019-2.958-3.481-9.747-4.809-17.922a62.883,62.883,0,0,1-.94-13.371l-.8-22.1Z" transform="translate(-96.662 -35.718)" fill="#ffa8a7"/>
        <path id="Path_43069" data-name="Path 43069" d="M374.784,202.158c2.954.236,4.875-.784,9.246-7.656s13.509-25.033,13.509-25.033,1.271-3.474-1.147-5.912c-2.714-2.736-4.48-1.265-4.48-1.265s-2.32,2.924-4.919,5.764c-2.391,2.614-5.437,5.157-7.514,7.617-1.452,1.719-4.694,26.485-4.694,26.485" transform="translate(-101.469 -43.832)" fill="#ffa8a7"/>
        <path id="Path_43070" data-name="Path 43070" d="M384.815,175.732s-.91,16.6-1.68,22.454a57.265,57.265,0,0,0,2.639-12.252,96.351,96.351,0,0,0,.88-11.976Z" transform="translate(-103.73 -47.097)" fill="#f28f8f"/>
        <path id="Path_43071" data-name="Path 43071" d="M371.258,131.926a43.285,43.285,0,0,1,3.517,14.118c.427,7.522-1.09,26.1-1.09,26.1s-1.841,2.813-8.763,3.525-9.839-.819-9.839-.819l-3.386-23s-8.778-4.968-9.014-14.258Z" transform="translate(-92.777 -35.718)" fill="#455a64"/>
        <path id="Path_43072" data-name="Path 43072" d="M370.244,144.58h.761a11.865,11.865,0,0,0,3.549,8.5,6.3,6.3,0,0,0,4.214,1.84c.051-6.489-.266-12.7-1.082-16.281l.742-.169c1.772,7.785,1.338,29.219-.58,37.692-.269.112-.557.22-.866.325,1-4.112,1.677-12.6,1.777-20.8a7.063,7.063,0,0,1-4.723-2.051,12.651,12.651,0,0,1-3.793-9.054" transform="translate(-100.24 -37.488)" fill="#37474f"/>
        <path id="Path_43073" data-name="Path 43073" d="M326.819,18.415a21.26,21.26,0,0,1,1.472-5.752c1.6-3.6,1.209-5.444-3.657-4.16-3.049.8-5.5,2.974-5.96,10.3-.131,2.11-.052,4.548.005,9.48a123.523,123.523,0,0,0,1.13,16.039,17.325,17.325,0,0,0,1.82,6.043c5.547,10.547,13.313,17.6,17.04,24.4,4.694-.319,11.22-8.048,7.727-12.891-3.991-1.685-15-13.835-16.532-19.605-1.016-3.834-3.563-12.422-3.432-16.8" transform="translate(-86.258 -2.191)" fill="#ffa8a7"/>
        <path id="Path_43074" data-name="Path 43074" d="M344.326,112.848c-.114-1.96-.008-5.22.006-6.191-4.887-4.682-3.44-9.714-1.6-13.407,3.685-7.384,7.21-11.562,10.462-11.4l8.89.769c4.854.635,8.168,1.224,9.342,1.5,2.987.691,2.873,2.859,3.007,6.037a33.906,33.906,0,0,1-.444,9.811l-4.2,8.8-.781,4.474c.911,1.984,4.957,8,5.591,17.126a61.492,61.492,0,0,1-17.642,2.46c-11.239.1-15.939-4.8-15.939-4.8Z" transform="translate(-92.325 -22.159)" fill="#b6132c"/>
        <g id="Group_4534" data-name="Group 4534" transform="translate(257.733 81.755)" opacity="0.1">
          <g id="Group_4533" data-name="Group 4533">
            <g id="Group_4532" data-name="Group 4532" clip-path="url(#clip-path-28)">
              <path id="Path_43075" data-name="Path 43075" d="M368.077,112.381a7.943,7.943,0,0,1-7.544,4.187,8.381,8.381,0,0,1-7.116-4.462s.211,5.844,7.116,5.86,7.544-5.585,7.544-5.585" transform="translate(-353.417 -112.106)"/>
            </g>
          </g>
        </g>
        <path id="Path_43076" data-name="Path 43076" d="M347.886,46.023l.026-.276c.8-8.527,5.692-10.116,14.636-9.2,6.609.679,12.6,3.769,14.595,9.628a15.021,15.021,0,0,1-1.809,13.164c-2.733,4.054-7.352,6.309-13.884,5.7h-.007c-8.5,1.031-14.352-10.495-13.556-19.018" transform="translate(-94.167 -9.833)" fill="#263238"/>
        <path id="Path_43077" data-name="Path 43077" d="M413.755,56.9a12.149,12.149,0,0,0,3.6-4.43c1.336-2.789,1.957-7.068-1.17-8.979a2.806,2.806,0,0,0-1.17-.425c-1.382-.141-2.492,1.027-3.578,1.892a10.058,10.058,0,0,1-7.448,2.077,15.851,15.851,0,0,1-7.662-3.763,10.466,10.466,0,0,0-2.264-1.555,6.26,6.26,0,0,0-2.148-.471,10.764,10.764,0,0,0-6.84,2.04,3.247,3.247,0,0,0-1.507,2,1.541,1.541,0,0,0,.709,1.492c.575.325,1.331-.012,1.944-.072a6.6,6.6,0,0,1,4.387.932,11.965,11.965,0,0,1,2.871,3.48c2.646,3.963,6.558,7.4,11.273,8.092a12.192,12.192,0,0,0,9.006-2.312" transform="translate(-103.842 -11.162)" fill="#263238"/>
        <path id="Path_43078" data-name="Path 43078" d="M354.148,44.069c-1.749.824-4.186,4.8-4.8,13.558-.521,7.422,1.709,9.475,2.865,10.116s3.511.536,5.806.37l-.415,4.444s-6.883,6.245-1.752,7.39c2.563.572,5.987-.761,8.352-2.3a9.084,9.084,0,0,0,3.31-4.4l.854-9.672s1.21,1.416,3.649-.346c2.014-1.453,2.9-4.14,1.584-5.749a3.258,3.258,0,0,0-5.257.547s-1.336-.016-2.432-2.6a10.112,10.112,0,0,1-6.229-2.019,13.918,13.918,0,0,1-5.536-9.344" transform="translate(-94.561 -11.931)" fill="#ffa8a7"/>
        <path id="Path_43079" data-name="Path 43079" d="M362.792,60.379a.936.936,0,1,0,1.065-.831.951.951,0,0,0-1.065.831" transform="translate(-98.219 -16.12)" fill="#263238"/>
        <g id="Group_4537" data-name="Group 4537" transform="translate(259.845 50.35)" opacity="0.5" style="mix-blend-mode: multiply;isolation: isolate">
          <g id="Group_4536" data-name="Group 4536">
            <g id="Group_4535" data-name="Group 4535" clip-path="url(#clip-path-29)">
              <path id="Path_43080" data-name="Path 43080" d="M359.307,69.043l-2.993.656a1.505,1.505,0,0,0,1.793,1.219,1.6,1.6,0,0,0,1.2-1.875" transform="translate(-356.313 -69.043)" fill="#f28f8f"/>
            </g>
          </g>
        </g>
        <path id="Path_43081" data-name="Path 43081" d="M351.573,54.994l2.006-1.13a1.105,1.105,0,0,0-1.535-.467,1.21,1.21,0,0,0-.471,1.6" transform="translate(-95.149 -14.417)" fill="#263238"/>
        <path id="Path_43082" data-name="Path 43082" d="M365,56.139l2.063,1.022a1.1,1.1,0,0,0-.478-1.531,1.209,1.209,0,0,0-1.585.51" transform="translate(-98.819 -15.028)" fill="#263238"/>
        <path id="Path_43083" data-name="Path 43083" d="M351.977,59.087a.936.936,0,1,0,1.065-.831.952.952,0,0,0-1.065.831" transform="translate(-95.291 -15.77)" fill="#263238"/>
        <g id="Group_4540" data-name="Group 4540" transform="translate(257.668 43.201)" opacity="0.5" style="mix-blend-mode: multiply;isolation: isolate">
          <g id="Group_4539" data-name="Group 4539">
            <g id="Group_4538" data-name="Group 4538" clip-path="url(#clip-path-30)">
              <path id="Path_43084" data-name="Path 43084" d="M356.865,59.24l-.672,5.592-2.865-1.189Z" transform="translate(-353.328 -59.24)" fill="#f28f8f"/>
            </g>
          </g>
        </g>
        <g id="Group_4543" data-name="Group 4543" transform="translate(263.32 53.276)" opacity="0.5" style="mix-blend-mode: multiply;isolation: isolate">
          <g id="Group_4542" data-name="Group 4542">
            <g id="Group_4541" data-name="Group 4541" clip-path="url(#clip-path-31)">
              <path id="Path_43085" data-name="Path 43085" d="M361.217,75.961c2.411-.09,7.442-1.04,8.387-2.906a5.038,5.038,0,0,1-1.949,2.312c-1.581,1.118-6.577,2.077-6.577,2.077Z" transform="translate(-361.078 -73.055)" fill="#f28f8f"/>
            </g>
          </g>
        </g>
        <path id="Path_43086" data-name="Path 43086" d="M384.481,43.015l-1.093-4a2.013,2.013,0,0,0-1.511,2.491,2.178,2.178,0,0,0,2.6,1.51" transform="translate(-103.37 -10.563)" fill="#263238"/>
        <path id="Path_43087" data-name="Path 43087" d="M385.614,43.5l2.286-3.46a2.013,2.013,0,0,0-2.869.507,2.18,2.18,0,0,0,.583,2.954" transform="translate(-104.15 -10.736)" fill="#263238"/>
        <path id="Path_43088" data-name="Path 43088" d="M374.394,62.251l-.364,3.9a2.662,2.662,0,0,1-2.4-2.9l.335-3.6Z" transform="translate(-100.611 -16.15)" fill="#263238"/>
        <path id="Path_43089" data-name="Path 43089" d="M400.014,54.99c-6.7,13.645-11.71,17.468-16.278,26.033-7.6.352-8.169-11.415-4.675-16.258,0,0,11.094-10.943,12.966-16.614,1.725-5.225,4.216-14.35,4.085-18.728a3.006,3.006,0,0,0-.844-1.942c-1.44-1.55-1.442-2.8-2.368-4.508-.721-1.335-1.51-1.833-1.285-2.134a1.724,1.724,0,0,1,2.338-.173,8.812,8.812,0,0,1,1.771,1.7,19.759,19.759,0,0,0-1.373-5.9c-1.6-3.6-1.209-5.443,3.656-4.16,3.049.8,5.7,3.188,6.161,10.517a76.389,76.389,0,0,1-.047,9.319c-.528,5.64-1.224,10.8-1.916,15.473a30.763,30.763,0,0,1-2.191,7.379" transform="translate(-102.069 -3.22)" fill="#ffa8a7"/>
        <path id="Path_43090" data-name="Path 43090" d="M314.017,22.981h.025l.018,0,.02,0,.019-.006a.34.34,0,0,0,.058-.027l17.728-10.235a.652.652,0,0,0,.294-.508V.985c0-.015,0-.028,0-.042a.09.09,0,0,0,0-.015.217.217,0,0,0-.023-.071.072.072,0,0,0-.009-.014.071.071,0,0,0-.015-.02.109.109,0,0,0-.013-.013.112.112,0,0,0-.024-.018l-.018-.009-.023-.007-.024,0a.262.262,0,0,0-.141.039L314.157,11.05a.543.543,0,0,0-.139.122.834.834,0,0,0-.068.1.765.765,0,0,0-.051.107.193.193,0,0,0-.012.037.528.528,0,0,0-.023.109c0,.012,0,.024,0,.036V22.773c0,.128.062.2.154.209" transform="translate(-84.975 -0.21)" fill="#455a64"/>
        <path id="Path_43091" data-name="Path 43091" d="M331.865.734a.659.659,0,0,0-.292-.469l-.336-.194a.647.647,0,0,0-.589,0L312.922,10.305a.566.566,0,0,0-.165.154.738.738,0,0,0-.044.066h0l.925.534h0a.777.777,0,0,1,.068-.1.521.521,0,0,1,.14-.122L331.574.605c.15-.087.273-.028.291.128" transform="translate(-84.664 0)" fill="#37474f"/>
        <path id="Path_43092" data-name="Path 43092" d="M314.666,22.964a1.178,1.178,0,0,0,.524-.908.418.418,0,0,0-.046-.208c-.094-.163-.287-.076-.366-.03a1.182,1.182,0,0,0-.524.908.433.433,0,0,0,.046.208c.094.163.287.074.366.03" transform="translate(-85.081 -5.889)" fill="#a40000"/>
        <path id="Path_43093" data-name="Path 43093" d="M337.944,9.179c0,.092.064.129.144.083a.318.318,0,0,0,.144-.249c0-.092-.064-.129-.144-.083a.317.317,0,0,0-.144.249" transform="translate(-91.495 -2.413)" fill="#263238"/>
        <path id="Path_43094" data-name="Path 43094" d="M337.32,11.78c0,.081.057.114.128.074a.282.282,0,0,0,.127-.221c0-.081-.057-.114-.127-.074a.282.282,0,0,0-.128.221" transform="translate(-91.326 -3.125)" fill="#263238"/>
        <path id="Path_43095" data-name="Path 43095" d="M337.313,8.788v1.647c0,.09.06.129.133.088a.3.3,0,0,0,.133-.241V8.635c0-.09-.059-.13-.133-.087a.3.3,0,0,0-.133.24" transform="translate(-91.324 -2.31)" fill="#263238"/>
        <path id="Path_43096" data-name="Path 43096" d="M313.771,26.66c-.143.058-.252-.02-.252-.19V15.256a.6.6,0,0,1,.086-.29l-.925-.534a.6.6,0,0,0-.085.29V25.935a.649.649,0,0,0,.294.509l.336.2a.663.663,0,0,0,.546.02" transform="translate(-84.632 -3.908)" fill="#263238"/>
        <path id="Path_43097" data-name="Path 43097" d="M332.4,3.363a.326.326,0,0,1-.295.006.1.1,0,0,1-.055-.081c0-.021,0-.1,0-.123a.112.112,0,0,1,.066-.088L334.1,1.935a.325.325,0,0,1,.295-.005.094.094,0,0,1,.055.076c0,.023,0,.106,0,.128a.11.11,0,0,1-.066.088Z" transform="translate(-89.9 -0.514)" fill="#263238"/>
        <path id="Path_43098" data-name="Path 43098" d="M332.4,3.24,334.381,2.1c.084-.048.088-.124.009-.17a.326.326,0,0,0-.295.006L332.12,3.075c-.084.049-.088.125-.009.171a.328.328,0,0,0,.295-.006" transform="translate(-89.9 -0.513)" fill="#455a64"/>
        <path id="Path_43099" data-name="Path 43099" d="M315.82,21.728v-.642l0-8.965a.487.487,0,0,1,.195-.4.567.567,0,0,1,.055-.038l14.06-8.117.68-.393a.256.256,0,0,1,.076-.03c.1-.023.176.046.176.176v9.6a.509.509,0,0,1-.08.311.362.362,0,0,1-.055.055.341.341,0,0,1-.036.024l-14.822,8.557a.168.168,0,0,1-.252-.146" transform="translate(-85.505 -0.851)" fill="#b6132c"/>
        <g id="Group_4546" data-name="Group 4546" transform="translate(230.315 2.291)" opacity="0.8">
          <g id="Group_4545" data-name="Group 4545">
            <g id="Group_4544" data-name="Group 4544" clip-path="url(#clip-path-32)">
              <path id="Path_43100" data-name="Path 43100" d="M315.82,21.728v-.642l0-8.965a.487.487,0,0,1,.195-.4.567.567,0,0,1,.055-.038l14.06-8.117.68-.393a.256.256,0,0,1,.076-.03c.1-.023.176.046.176.176v9.6a.509.509,0,0,1-.08.311.362.362,0,0,1-.055.055.341.341,0,0,1-.036.024l-14.822,8.557a.168.168,0,0,1-.252-.146" transform="translate(-315.82 -3.142)" fill="#fff"/>
            </g>
          </g>
        </g>
        <g id="Group_4549" data-name="Group 4549" transform="translate(235.94 6.915)" opacity="0.8">
          <g id="Group_4548" data-name="Group 4548">
            <g id="Group_4547" data-name="Group 4547" clip-path="url(#clip-path-33)">
              <path id="Path_43101" data-name="Path 43101" d="M323.533,18.868V18.4l0-6.488a.354.354,0,0,1,0-.048.363.363,0,0,1,.138-.239c.012-.009.026-.018.04-.027l3.138-1.809.492-.284a.2.2,0,0,1,.055-.022c.074-.016.128.033.128.127v6.951a.364.364,0,0,1-.058.225.26.26,0,0,1-.04.04.234.234,0,0,1-.026.018l-3.689,2.128a.122.122,0,0,1-.182-.106" transform="translate(-323.533 -9.482)" fill="#b6132c"/>
            </g>
          </g>
        </g>
        <g id="Group_4552" data-name="Group 4552" transform="translate(236.188 6.94)" opacity="0.15">
          <g id="Group_4551" data-name="Group 4551">
            <g id="Group_4550" data-name="Group 4550" clip-path="url(#clip-path-34)">
              <path id="Path_43102" data-name="Path 43102" d="M324.851,14.777l.485-1.033-1.463-2.17.117-.067,1.469,1.976,1.819-3.874.16-.093L325.31,14.6l2.186,2.253-.069.04-1.78-1.463-1.664,3.449-.11.063,1.584-3.67Z" transform="translate(-323.873 -9.516)"/>
            </g>
          </g>
        </g>
        <path id="Path_43103" data-name="Path 43103" d="M329.338,28.539a3,3,0,0,1,.844-1.943c1.44-1.55,1.442-2.8,2.367-4.507.721-1.335,1.511-1.834,1.286-2.135a1.725,1.725,0,0,0-2.338-.172,8.789,8.789,0,0,0-1.772,1.7" transform="translate(-89.165 -5.258)" fill="#ffa8a7"/>
      </g>
    </g>
  </g>
</svg>
