<svg xmlns="http://www.w3.org/2000/svg" xmlns:xlink="http://www.w3.org/1999/xlink" width="28" height="28" viewBox="0 0 28 28">
    <defs>
        <clipPath id="clip-path">
            <rect id="Rectangle_23662" data-name="Rectangle 23662" width="28" height="28" transform="translate(304 71)"/>
        </clipPath>
    </defs>
    <g id="Mask_Group_230" data-name="Mask Group 230" transform="translate(-304 -71)" clip-path="url(#clip-path)">
        <g id="svgexport-17_11_" data-name="svgexport-17 (11)" transform="translate(304 71)">
            <path id="Path_42885" data-name="Path 42885" d="M18.674,18.5c2.98-4.675,2.6-4.092,2.691-4.214a8.956,8.956,0,0,0,1.658-5.208A9.023,9.023,0,1,0,6.682,14.353L9.325,18.5C6.5,18.934,1.7,20.228,1.7,23.078c0,1.039.678,2.519,3.908,3.673A25.892,25.892,0,0,0,14,28c5.908,0,12.3-1.666,12.3-4.922C26.3,20.228,21.506,18.935,18.674,18.5ZM8.053,13.45l-.028-.041a7.383,7.383,0,1,1,12.011-.083c-.079.1.333-.536-6.035,9.456L8.053,13.45ZM14,26.359c-6.453,0-10.664-1.9-10.664-3.281,0-.931,2.164-2.461,6.959-3.057l3.013,4.728a.82.82,0,0,0,1.383,0l3.013-4.728c4.8.6,6.959,2.127,6.959,3.057C24.664,24.451,20.491,26.359,14,26.359Z"/>
            <path id="Path_42886" data-name="Path 42886" d="M14,4.977a4.1,4.1,0,1,0,4.1,4.1A4.106,4.106,0,0,0,14,4.977Zm0,6.563a2.461,2.461,0,1,1,2.461-2.461A2.464,2.464,0,0,1,14,11.539Z"/>
        </g>
    </g>
</svg>
