<svg xmlns="http://www.w3.org/2000/svg" xmlns:xlink="http://www.w3.org/1999/xlink" width="22.475" height="27.612" viewBox="0 0 22.475 27.612">
  <defs>
    <linearGradient id="linear-gradient" x1="0.5" x2="0.5" y2="1" gradientUnits="objectBoundingBox">
      <stop offset="0" stop-color="#a50006"/>
      <stop offset="1" stop-color="#4c0105"/>
    </linearGradient>
  </defs>
  <g id="svgexport-9_54_" data-name="svgexport-9 (54)" transform="translate(-3.25 -1.25)">
    <path id="Path_2602" data-name="Path 2602" d="M13.919,1.25A8.719,8.719,0,0,0,5.25,10.01a13.449,13.449,0,0,0,1.772,5.7,55.78,55.78,0,0,0,6.166,8.963.963.963,0,0,0,1.462,0,55.78,55.78,0,0,0,6.166-8.963,13.449,13.449,0,0,0,1.772-5.7,8.719,8.719,0,0,0-8.669-8.76Zm0,1.926a6.792,6.792,0,0,1,6.742,6.834c0,1.883-1.194,4.336-2.574,6.623a56.492,56.492,0,0,1-4.169,5.9,56.492,56.492,0,0,1-4.169-5.9c-1.379-2.287-2.574-4.74-2.574-6.623A6.792,6.792,0,0,1,13.919,3.176Z" transform="translate(0.569 0)" fill="url(#linear-gradient)"/>
    <path id="Path_2603" data-name="Path 2603" d="M14.487,5.25a3.533,3.533,0,0,0,0,7.063,3.533,3.533,0,0,0,0-7.063Zm0,1.926a1.605,1.605,0,1,1-1.605,1.605A1.605,1.605,0,0,1,14.487,7.176Zm6.144,13.648a7.964,7.964,0,0,1,2.5,1.156c.385.293.668.579.668.929a.907.907,0,0,1-.281.578,4.026,4.026,0,0,1-1.178.84A18.348,18.348,0,0,1,14.487,25.8a18.348,18.348,0,0,1-7.852-1.472,4.026,4.026,0,0,1-1.178-.84.907.907,0,0,1-.281-.578c0-.349.283-.636.668-.929a7.964,7.964,0,0,1,2.5-1.156.964.964,0,0,0-.555-1.845A8.832,8.832,0,0,0,4.221,20.84a2.883,2.883,0,0,0-.971,2.069A3.226,3.226,0,0,0,4.8,25.459c1.819,1.315,5.471,2.265,9.691,2.265s7.873-.95,9.691-2.265a3.226,3.226,0,0,0,1.546-2.551,2.883,2.883,0,0,0-.971-2.069,8.832,8.832,0,0,0-3.568-1.861.964.964,0,0,0-.555,1.845Z" transform="translate(0 1.137)" fill="url(#linear-gradient)"/>
  </g>
</svg>
