<svg xmlns="http://www.w3.org/2000/svg" xmlns:xlink="http://www.w3.org/1999/xlink" width="23" height="22" viewBox="0 0 23 22">
  <defs>
    <linearGradient id="linear-gradient" x1="0.5" x2="0.5" y2="1" gradientUnits="objectBoundingBox">
      <stop offset="0" stop-color="#a40000"/>
      <stop offset="1" stop-color="#40050e"/>
    </linearGradient>
    <clipPath id="clip-path">
      <rect id="Rectangle_23646" data-name="Rectangle 23646" width="23" height="22" transform="translate(-0.68 0)" fill="url(#linear-gradient)"/>
    </clipPath>
  </defs>
  <g id="Mask_Group_220" data-name="Mask Group 220" transform="translate(0.68 0)" clip-path="url(#clip-path)">
    <g id="svgexport-17_1_" data-name="svgexport-17 (1)" transform="translate(-0.251 1.486)">
      <path id="Path_42861" data-name="Path 42861" d="M11,20.919a.644.644,0,0,1-.322-.086,38.489,38.489,0,0,1-5.29-3.807,21.823,21.823,0,0,1-3.669-3.932A8.294,8.294,0,0,1,0,8.376,6.811,6.811,0,0,1,1.738,3.814a5.7,5.7,0,0,1,4.24-1.922A5.883,5.883,0,0,1,11,4.871a5.883,5.883,0,0,1,5.023-2.979A5.728,5.728,0,0,1,20.1,3.626,6.715,6.715,0,0,1,22,8.384a8.455,8.455,0,0,1-1.75,4.711,22.1,22.1,0,0,1-3.664,3.931,38.621,38.621,0,0,1-5.262,3.807A.645.645,0,0,1,11,20.919Z" transform="translate(0 -1.892)" fill="url(#linear-gradient)"/>
    </g>
  </g>
</svg>
