<svg xmlns="http://www.w3.org/2000/svg" xmlns:xlink="http://www.w3.org/1999/xlink" width="21" height="21" viewBox="0 0 21 21">
  <defs>
    <linearGradient id="linear-gradient" x1="0.5" x2="0.5" y2="1" gradientUnits="objectBoundingBox">
      <stop offset="0" stop-color="#a40000"/>
      <stop offset="1" stop-color="#40050e"/>
    </linearGradient>
    <clipPath id="clip-path">
      <rect id="Rectangle_23773" data-name="Rectangle 23773" width="21" height="21" transform="translate(339 584)" stroke="#707070" stroke-width="1" fill="url(#linear-gradient)"/>
    </clipPath>
  </defs>
  <g id="Mask_Group_283" data-name="Mask Group 283" transform="translate(-339 -584)" clip-path="url(#clip-path)">
    <g id="svgexport-17_35_" data-name="svgexport-17 (35)" transform="translate(339 584)">
      <path id="Path_43167" data-name="Path 43167" d="M14.862,18.734l-.293,1.2q-1.32.521-2.107.794A5.558,5.558,0,0,1,10.634,21a3.648,3.648,0,0,1-2.486-.78,2.523,2.523,0,0,1-.887-1.981,7.006,7.006,0,0,1,.066-.953q.067-.488.214-1.1l1.1-3.894q.147-.559.248-1.06a4.607,4.607,0,0,0,.1-.912A1.411,1.411,0,0,0,8.682,9.28a1.739,1.739,0,0,0-1.177-.294,3.083,3.083,0,0,0-.875.134c-.3.088-.555.174-.77.253l.294-1.2q1.081-.44,2.068-.753a6.186,6.186,0,0,1,1.87-.314,3.558,3.558,0,0,1,2.448.767,2.546,2.546,0,0,1,.86,1.993c0,.169-.019.467-.059.893a5.976,5.976,0,0,1-.22,1.174l-1.1,3.878a10.3,10.3,0,0,0-.241,1.068,5.5,5.5,0,0,0-.107.906,1.306,1.306,0,0,0,.345,1.053,1.948,1.948,0,0,0,1.2.28,3.46,3.46,0,0,0,.906-.14A5.067,5.067,0,0,0,14.862,18.734Zm.278-16.281a2.269,2.269,0,0,1-.766,1.727,2.609,2.609,0,0,1-1.845.714,2.638,2.638,0,0,1-1.855-.714A2.264,2.264,0,0,1,9.9,2.452,2.287,2.287,0,0,1,10.673.72a2.738,2.738,0,0,1,3.7,0,2.291,2.291,0,0,1,.766,1.733Z" fill="url(#linear-gradient)"/>
    </g>
  </g>
</svg>
