<svg width="18" height="18" viewBox="0 0 18 18" fill="none" xmlns="http://www.w3.org/2000/svg">
    <defs>
        <linearGradient id="linear-gradient" x1="0.5" x2="0.5" y2="1" gradientUnits="objectBoundingBox">
            <stop offset="0" stop-color="#a40000"/>
            <stop offset="1" stop-color="#40050e"/>
        </linearGradient>
    </defs>
    <path d="M9 2.06258C3.79725 2.06258 2.0625 3.79733 2.0625 9.00008C2.0625 14.2028 3.79725 15.9376 9 15.9376C14.2027 15.9376 15.9375 14.2028 15.9375 9.00008" stroke="url(#linear-gradient)" stroke-width="1.5" stroke-linecap="round" stroke-linejoin="round"/>
    <path fill-rule="evenodd" clip-rule="evenodd" d="M14.646 3.22785V3.22785C13.9013 2.5686 12.7635 2.6376 12.1043 3.38235C12.1043 3.38235 8.82753 7.0836 7.69128 8.36835C6.55353 9.65235 7.38753 11.4261 7.38753 11.4261C7.38753 11.4261 9.26553 12.0209 10.386 10.7549C11.5073 9.48885 14.8005 5.7696 14.8005 5.7696C15.4598 5.02485 15.39 3.8871 14.646 3.22785Z" fill="url(#linear-gradient)" stroke="url(#linear-gradient)" stroke-width="1.5" stroke-linecap="round" stroke-linejoin="round"/>
    <path d="M11.2568 4.3506L13.9531 6.73785" stroke="url(#linear-gradient)" stroke-width="1.5" stroke-linecap="round" stroke-linejoin="round"/>
</svg>