<svg xmlns="http://www.w3.org/2000/svg" xmlns:xlink="http://www.w3.org/1999/xlink" width="19" height="18" viewBox="0 0 19 18">
  <defs>
    <clipPath id="clip-path">
      <rect id="Rectangle_23778" data-name="Rectangle 23778" width="19" height="18" transform="translate(-0.68 0)" fill="#9d9d9d"/>
    </clipPath>
  </defs>
  <g id="Mask_Group_287" data-name="Mask Group 287" transform="translate(0.68 0)" clip-path="url(#clip-path)">
    <g id="svgexport-17_1_" data-name="svgexport-17 (1)" transform="translate(-0.329 1.216)">
      <path id="Path_43171" data-name="Path 43171" d="M9,17.459a.527.527,0,0,1-.264-.071,31.491,31.491,0,0,1-4.328-3.115,17.855,17.855,0,0,1-3-3.217A6.786,6.786,0,0,1,0,7.2,5.573,5.573,0,0,1,1.422,3.465,4.659,4.659,0,0,1,4.891,1.892,4.814,4.814,0,0,1,9,4.329a4.814,4.814,0,0,1,4.109-2.437,4.686,4.686,0,0,1,3.335,1.419A5.494,5.494,0,0,1,18,7.2a6.918,6.918,0,0,1-1.432,3.854,18.086,18.086,0,0,1-3,3.216,31.6,31.6,0,0,1-4.3,3.114A.528.528,0,0,1,9,17.459Z" transform="translate(0 -1.892)" fill="#9d9d9d"/>
    </g>
  </g>
</svg>
