<svg xmlns="http://www.w3.org/2000/svg" xmlns:xlink="http://www.w3.org/1999/xlink" width="21" height="21" viewBox="0 0 21 21">
  <defs>
    <linearGradient id="linear-gradient" x1="0.5" x2="0.5" y2="1" gradientUnits="objectBoundingBox">
      <stop offset="0" stop-color="#a40000"/>
      <stop offset="1" stop-color="#40050e"/>
    </linearGradient>
    <clipPath id="clip-path">
      <rect id="Rectangle_23771" data-name="Rectangle 23771" width="21" height="21" transform="translate(339 361)" stroke="#707070" stroke-width="1" fill="url(#linear-gradient)"/>
    </clipPath>
  </defs>
  <g id="Mask_Group_281" data-name="Mask Group 281" transform="translate(-339 -361)" clip-path="url(#clip-path)">
    <g id="svgexport-17_33_" data-name="svgexport-17 (33)" transform="translate(339 361)">
      <path id="Path_43163" data-name="Path 43163" d="M15.17,11.5l-1.4,1.4h0L4.1,3.228l.743-.743L1.759,0,0,1.759,2.484,4.841,3.228,4.1,12.9,13.77l-1.4,1.4,2,2,3.67-3.67Zm2.867,2.867-3.67,3.67,2.2,2.2a2.6,2.6,0,0,0,3.67-3.67Z" fill="url(#linear-gradient)"/>
      <path id="Path_43164" data-name="Path 43164" d="M10.628,13.239,7.761,10.372l-2.1,2.1a4.363,4.363,0,1,0,2.867,2.867Zm-5.267,4.4a1.412,1.412,0,1,1,0-2A1.412,1.412,0,0,1,5.362,17.635Zm15.352-15-.343-.876-2.2,2.2-.889-.238-.238-.889,2.2-2.2L18.368.286a4.146,4.146,0,0,0-5.5,4.983L10.371,7.762l2.867,2.867,2.493-2.493a4.146,4.146,0,0,0,4.983-5.5Z" fill="url(#linear-gradient)"/>
    </g>
  </g>
</svg>
