<svg xmlns="http://www.w3.org/2000/svg" xmlns:xlink="http://www.w3.org/1999/xlink" width="20" height="20" viewBox="0 0 20 20">
    <defs>
        <clipPath id="clip-path">
            <rect id="Rectangle_23799" data-name="Rectangle 23799" width="20" height="20" transform="translate(362 245)" fill="#fff"/>
        </clipPath>
    </defs>
    <g id="Mask_Group_295" data-name="Mask Group 295" transform="translate(-362 -245)" clip-path="url(#clip-path)">
        <g id="svgexport-17_55_" data-name="svgexport-17 (55)" transform="translate(362 245)">
            <path id="Path_43213" data-name="Path 43213" d="M19.921,9.707,18.739,7.658V5.293a.586.586,0,0,0-.293-.507L16.4,3.6,15.215,1.554a.586.586,0,0,0-.507-.293H12.342L10.293.078a.586.586,0,0,0-.586,0L7.658,1.261H5.293a.586.586,0,0,0-.507.293L3.6,3.6,1.554,4.785a.586.586,0,0,0-.293.507V7.658L.078,9.707a.586.586,0,0,0,0,.586l1.183,2.049v2.365a.586.586,0,0,0,.293.507L3.6,16.4l1.183,2.049a.586.586,0,0,0,.507.293H7.658l2.049,1.183a.586.586,0,0,0,.586,0l2.049-1.183h2.365a.586.586,0,0,0,.507-.293L16.4,16.4l2.049-1.183a.586.586,0,0,0,.293-.507V12.342l1.183-2.049a.586.586,0,0,0,0-.586ZM7.134,11.883a.586.586,0,0,1-1.073.325L4.624,10.052v1.83a.586.586,0,1,1-1.172,0V8.117a.586.586,0,0,1,1.073-.325L5.962,9.948V8.117a.586.586,0,1,1,1.172,0ZM9.686,9.414a.586.586,0,0,1,0,1.172H9.017V11.3h1.3a.586.586,0,0,1,0,1.172H8.431a.586.586,0,0,1-.586-.586V8.117a.586.586,0,0,1,.586-.586h1.883a.586.586,0,1,1,0,1.172h-1.3v.711Zm7.158-1.155L15.9,12.025a.586.586,0,0,1-1.124.043l-.7-2.1-.7,2.1a.586.586,0,0,1-1.124-.043l-.941-3.766a.586.586,0,0,1,1.137-.284L12.9,9.789l.619-1.857a.586.586,0,0,1,1.112,0l.619,1.857.453-1.814a.586.586,0,0,1,1.137.284Z" fill="#fff"/>
        </g>
    </g>
</svg>
