<svg xmlns="http://www.w3.org/2000/svg" xmlns:xlink="http://www.w3.org/1999/xlink" width="27" height="27" viewBox="0 0 27 27">
  <defs>
    <clipPath id="clip-path">
      <rect id="Rectangle_2069" data-name="Rectangle 2069" width="27" height="27" transform="translate(30 37)" fill="#fff"/>
    </clipPath>
  </defs>
  <g id="Mask_Group_270" data-name="Mask Group 270" transform="translate(-30 -37)" clip-path="url(#clip-path)">
    <g id="svgexport-17_29_" data-name="svgexport-17 (29)" transform="translate(29.998 37)">
      <path id="Path_43155" data-name="Path 43155" d="M24.051,19.027a7.535,7.535,0,0,1-2.676-5.766V10.125a7.881,7.881,0,0,0-6.75-7.785V1.125a1.125,1.125,0,0,0-2.25,0V2.34a7.88,7.88,0,0,0-6.75,7.785v3.137a7.543,7.543,0,0,1-2.687,5.775A1.971,1.971,0,0,0,4.219,22.5H22.781a1.969,1.969,0,0,0,1.27-3.473ZM13.5,27a4.226,4.226,0,0,0,4.133-3.375H9.367A4.226,4.226,0,0,0,13.5,27Z" fill="#fff"/>
    </g>
  </g>
</svg>
