<svg xmlns="http://www.w3.org/2000/svg" xmlns:xlink="http://www.w3.org/1999/xlink" width="20" height="20" viewBox="0 0 20 20">
    <defs>
        <clipPath id="clip-path">
            <rect id="Rectangle_23802" data-name="Rectangle 23802" width="20" height="20" transform="translate(362 333)" fill="#fff"/>
        </clipPath>
    </defs>
    <g id="Mask_Group_296" data-name="Mask Group 296" transform="translate(-362 -333)" clip-path="url(#clip-path)">
        <g id="svgexport-17_56_" data-name="svgexport-17 (56)" transform="translate(362 333)">
            <path id="Path_43214" data-name="Path 43214" d="M18.67,10.259a.586.586,0,0,1,0-.518l.746-1.526a1.736,1.736,0,0,0-.749-2.306l-1.5-.8a.586.586,0,0,1-.3-.419l-.293-1.673A1.736,1.736,0,0,0,14.607,1.6l-1.682.238a.586.586,0,0,1-.493-.16L11.212.493a1.736,1.736,0,0,0-2.424,0L7.567,1.674a.586.586,0,0,1-.493.16L5.393,1.6A1.736,1.736,0,0,0,3.431,3.021L3.138,4.694a.586.586,0,0,1-.3.419l-1.5.8A1.736,1.736,0,0,0,.584,8.215L1.33,9.741a.586.586,0,0,1,0,.518L.584,11.785a1.736,1.736,0,0,0,.749,2.306l1.5.8a.586.586,0,0,1,.3.419l.293,1.673a1.735,1.735,0,0,0,1.712,1.443,1.784,1.784,0,0,0,.25-.018l1.682-.238a.586.586,0,0,1,.493.16l1.221,1.181a1.736,1.736,0,0,0,2.424,0l1.221-1.181a.587.587,0,0,1,.493-.16l1.682.238a1.736,1.736,0,0,0,1.961-1.425l.293-1.673a.586.586,0,0,1,.3-.419l1.5-.8a1.736,1.736,0,0,0,.749-2.306l-.746-1.526ZM7.693,4.809A2.115,2.115,0,1,1,5.578,6.924,2.117,2.117,0,0,1,7.693,4.809ZM6.6,14.214a.577.577,0,1,1-.816-.816L13.4,5.786a.577.577,0,0,1,.816.816Zm5.706.977a2.115,2.115,0,1,1,2.115-2.115A2.117,2.117,0,0,1,12.307,15.191Z" fill="#fff"/>
            <path id="Path_43215" data-name="Path 43215" d="M12.307,12.115a.961.961,0,1,0,.961.961A.962.962,0,0,0,12.307,12.115ZM7.693,5.963a.961.961,0,1,0,.961.961A.962.962,0,0,0,7.693,5.963Z" fill="#fff"/>
        </g>
    </g>
</svg>
