<svg xmlns="http://www.w3.org/2000/svg" xmlns:xlink="http://www.w3.org/1999/xlink" width="26" height="26" viewBox="0 0 26 26">
    <defs>
        <linearGradient id="linear-gradient" x1="0.5" x2="0.5" y2="1" gradientUnits="objectBoundingBox">
            <stop offset="0" stop-color="#a40000"/>
            <stop offset="1" stop-color="#40050e"/>
        </linearGradient>
        <clipPath id="clip-path">
            <rect id="Rectangle_23894" data-name="Rectangle 23894" width="26" height="26" transform="translate(42 711)" fill="url(#linear-gradient)"/>
        </clipPath>
    </defs>
    <g id="Mask_Group_330" data-name="Mask Group 330" transform="translate(-42 -711)" clip-path="url(#clip-path)">
        <g id="svgexport-18_14_" data-name="svgexport-18 (14)" transform="translate(41.98 711)">
            <path id="Path_43263" data-name="Path 43263" d="M25.952,7.644a9.5,9.5,0,0,0-.6-3.154,6.66,6.66,0,0,0-3.8-3.8,9.524,9.524,0,0,0-3.154-.6C17,.015,16.555,0,13.025,0S9.054.015,7.667.076a9.505,9.505,0,0,0-3.154.6,6.343,6.343,0,0,0-2.306,1.5,6.4,6.4,0,0,0-1.5,2.3A9.528,9.528,0,0,0,.1,7.639C.038,9.031.023,9.473.023,13S.038,16.974.1,18.361a9.5,9.5,0,0,0,.6,3.154,6.659,6.659,0,0,0,3.8,3.8,9.525,9.525,0,0,0,3.154.6C9.048,25.985,9.49,26,13.02,26s3.972-.015,5.358-.076a9.5,9.5,0,0,0,3.154-.6,6.65,6.65,0,0,0,3.8-3.8,9.534,9.534,0,0,0,.6-3.154c.061-1.387.076-1.828.076-5.358S26.013,9.031,25.952,7.644ZM23.61,18.259a7.127,7.127,0,0,1-.447,2.413,4.313,4.313,0,0,1-2.469,2.469,7.151,7.151,0,0,1-2.413.447c-1.371.061-1.783.076-5.252.076s-3.886-.015-5.252-.076a7.122,7.122,0,0,1-2.413-.447,4,4,0,0,1-1.493-.97,4.042,4.042,0,0,1-.97-1.493,7.152,7.152,0,0,1-.447-2.413c-.061-1.371-.076-1.783-.076-5.252s.015-3.886.076-5.252A7.122,7.122,0,0,1,2.9,5.348a3.951,3.951,0,0,1,.975-1.493,4.035,4.035,0,0,1,1.493-.97,7.156,7.156,0,0,1,2.413-.447c1.371-.061,1.783-.076,5.252-.076s3.886.015,5.252.076a7.127,7.127,0,0,1,2.413.447,4,4,0,0,1,1.493.97,4.042,4.042,0,0,1,.97,1.493,7.155,7.155,0,0,1,.447,2.413c.061,1.371.076,1.783.076,5.252s-.015,3.875-.076,5.247Zm0,0" fill="url(#linear-gradient)"/>
            <path id="Path_43264" data-name="Path 43264" d="M13.025,6.324A6.679,6.679,0,1,0,19.7,13,6.681,6.681,0,0,0,13.025,6.324Zm0,11.012A4.333,4.333,0,1,1,17.358,13,4.333,4.333,0,0,1,13.025,17.335Zm8.5-11.276A1.559,1.559,0,1,1,19.969,4.5a1.559,1.559,0,0,1,1.559,1.559Zm0,0" fill="url(#linear-gradient)"/>
        </g>
    </g>
</svg>
