<svg xmlns="http://www.w3.org/2000/svg" xmlns:xlink="http://www.w3.org/1999/xlink" width="26" height="26" viewBox="0 0 26 26">
    <defs>
        <linearGradient id="linear-gradient" x1="0.5" x2="0.5" y2="1" gradientUnits="objectBoundingBox">
            <stop offset="0" stop-color="#a40000"/>
            <stop offset="1" stop-color="#40050e"/>
        </linearGradient>
        <clipPath id="clip-path">
            <rect id="Rectangle_23893" data-name="Rectangle 23893" width="26" height="26" transform="translate(123 711)" fill="url(#linear-gradient)"/>
        </clipPath>
    </defs>
    <g id="Mask_Group_329" data-name="Mask Group 329" transform="translate(-123 -711)" clip-path="url(#clip-path)">
        <g id="svgexport-18_13_" data-name="svgexport-18 (13)" transform="translate(122.98 710.98)">
            <path id="Path_43262" data-name="Path 43262" d="M24.429,6.53a6.551,6.551,0,0,1-3.958-1.323A6.566,6.566,0,0,1,17.98,1.249,6.6,6.6,0,0,1,17.854.02H13.609v11.6L13.6,17.974a3.849,3.849,0,1,1-2.64-3.646v-4.31A8.354,8.354,0,0,0,9.74,9.927a8.14,8.14,0,0,0-6.117,2.736,7.978,7.978,0,0,0,.36,11,8.282,8.282,0,0,0,.767.67A8.141,8.141,0,0,0,9.74,26.02a8.354,8.354,0,0,0,1.224-.09A8.113,8.113,0,0,0,15.5,23.663a7.948,7.948,0,0,0,2.384-5.656l-.022-9.488a10.724,10.724,0,0,0,2.384,1.391,10.731,10.731,0,0,0,4.2.846V6.529s-.011,0-.012,0Z" fill="url(#linear-gradient)"/>
        </g>
    </g>
</svg>
